<svg width="73" height="73" viewBox="0 0 73 73" fill="none" xmlns="http://www.w3.org/2000/svg">
<path d="M36.5 69.875C54.9325 69.875 69.875 54.9325 69.875 36.5C69.875 18.0675 54.9325 3.125 36.5 3.125C18.0675 3.125 3.125 18.0675 3.125 36.5C3.125 54.9325 18.0675 69.875 36.5 69.875Z" stroke="#428A35" stroke-width="5" stroke-linecap="round" stroke-linejoin="round"/>
<path d="M36.5 47.625C44.1802 47.625 50.4062 41.399 50.4062 33.7188C50.4062 26.0385 44.1802 19.8125 36.5 19.8125C28.8198 19.8125 22.5938 26.0385 22.5938 33.7188C22.5938 41.399 28.8198 47.625 36.5 47.625Z" stroke="#428A35" stroke-width="5" stroke-linecap="round" stroke-linejoin="round"/>
<path d="M14.1802 61.3136C16.2752 57.1946 19.4691 53.7357 23.4085 51.3197C27.3478 48.9038 31.8788 47.625 36.5 47.625C41.1212 47.625 45.6522 48.9037 49.5915 51.3197C53.5309 53.7356 56.7248 57.1946 58.8199 61.3135" stroke="#428A35" stroke-width="5" stroke-linecap="round" stroke-linejoin="round"/>
</svg>
