<svg width="48" height="62" viewBox="0 0 48 62" fill="none" xmlns="http://www.w3.org/2000/svg">
<path d="M28.4738 47.8445L28.5362 47.8677L28.6001 47.8866C28.7936 47.9438 28.9948 48.0085 29.2048 48.0761C30.1391 48.3766 31.2464 48.7328 32.61 48.7328L32.6325 48.7328C32.6568 48.7329 32.6842 48.7329 32.7142 48.7328L34.2025 57.3216L25.0228 51.8883L24.0041 51.2853L22.9854 51.8883L13.6718 57.4009L14.9238 48.7303C15.0691 48.733 15.2082 48.7329 15.3389 48.7329C15.3589 48.7328 15.3786 48.7328 15.3982 48.7328C17.0094 48.7328 18.5508 48.2767 19.5905 47.8238L24.0041 46.1911L28.4738 47.8445Z" stroke="#428A35" stroke-width="4"/>
<path d="M43.1269 23.1957C43.1716 23.3034 43.2204 23.409 43.2735 23.5119L45.3844 28.7596L45.4332 28.8808L45.4973 28.9946C45.5106 29.0183 45.516 29.0337 45.5132 29.0749C45.5095 29.1311 45.4856 29.2493 45.3897 29.4195C45.196 29.7635 44.8126 30.1308 44.3455 30.3559L39.1553 32.1282C41.3306 29.6309 42.7667 26.5717 43.1269 23.1957ZM26.3192 38.6729C29.6798 38.3024 32.8147 37.1369 35.4493 35.376L33.4611 39.9655C32.9044 40.6204 32.2287 40.9124 31.7493 40.9124C31.7089 40.9124 31.6769 40.9124 31.6481 40.9122L31.5317 40.8088L31.2167 40.6797L26.3192 38.6729ZM12.1818 35.1179C14.7226 36.9038 17.7591 38.1243 21.0307 38.5899L15.9305 40.6797L15.6156 40.8088L15.4991 40.9122C15.4703 40.9124 15.4383 40.9124 15.398 40.9124C15.1412 40.9124 14.906 40.8357 14.7274 40.7088C14.5631 40.5921 14.4027 40.4037 14.311 40.0782L14.2746 39.9487L14.2211 39.8252L12.1818 35.1179ZM4.91542 23.4921C5.3075 26.6038 6.61551 29.4372 8.57114 31.797L3.1483 29.9452C2.48968 29.7089 2.1882 29.3588 2.07784 29.1348C1.97838 28.933 1.98997 28.7729 2.08027 28.6126L4.66204 24.0282C4.75854 23.8569 4.843 23.6775 4.91542 23.4921ZM43.0924 19.5454C42.7003 16.4336 41.3923 13.6003 39.4367 11.2404L44.8595 13.0922C45.5182 13.3285 45.8196 13.6786 45.93 13.9026C46.0294 14.1044 46.0179 14.2645 45.9276 14.4248L43.3458 19.0092C43.2493 19.1805 43.1648 19.3599 43.0924 19.5454ZM33.7867 3.2122L35.826 7.91955C33.2015 6.07478 30.0482 4.83335 26.6531 4.40403L31.647 2.35769L31.962 2.22862L32.0505 2.14997C32.1187 2.1403 32.2023 2.13331 32.3005 2.12934C32.4033 2.1252 32.5006 2.125 32.6098 2.125C32.8666 2.125 33.1018 2.20171 33.2805 2.32861C33.4448 2.44531 33.6051 2.63372 33.6968 2.95927L33.7332 3.08876L33.7867 3.2122ZM21.764 4.2065C21.8332 4.25297 21.9024 4.2958 21.9713 4.33529C18.1151 4.70776 14.5437 6.12676 11.6676 8.29386C11.7094 8.1565 11.7431 8.01321 11.7665 7.86422L13.7016 3.05377C14.2554 2.41159 14.923 2.125 15.398 2.125C15.5072 2.125 15.6046 2.1252 15.7073 2.12934C15.8055 2.13331 15.8891 2.1403 15.9573 2.14997L16.0922 2.26972L16.4729 2.39972L21.764 4.2065ZM2.6633 13.1103L8.57491 11.2359C6.55524 13.6713 5.22554 16.6115 4.88095 19.8418C4.82164 19.6988 4.75503 19.5597 4.68112 19.4255L2.14217 14.5415C1.94054 14.0671 1.98852 13.7089 2.07244 13.5102C2.15416 13.3167 2.29053 13.2011 2.49217 13.1564L2.57876 13.1372L2.6633 13.1103Z" stroke="#428A35" stroke-width="4"/>
<path d="M34.913 21.5195C34.913 23.9467 33.829 26.3303 31.8042 28.128C29.7717 29.9325 26.9691 30.9804 24.0041 30.9804C21.0391 30.9804 18.2365 29.9325 16.204 28.128C14.1792 26.3303 13.0952 23.9467 13.0952 21.5195C13.0952 19.0923 14.1792 16.7087 16.204 14.911C18.2365 13.1064 21.0391 12.0586 24.0041 12.0586C26.9691 12.0586 29.7717 13.1064 31.8042 14.911C33.829 16.7087 34.913 19.0923 34.913 21.5195Z" stroke="#428A35" stroke-width="4"/>
</svg>
