<svg viewBox="0 0 82 71" fill="none" xmlns="http://www.w3.org/2000/svg">
<path d="M56.6842 50.0989C60.1415 48.1721 59.6934 40.7473 55.6867 33.5033C53.9679 30.3842 51.8547 27.8584 49.7414 26.0926C47.2144 27.973 44.1534 28.9928 41.0066 29.0026C37.855 28.9956 34.7887 27.9757 32.2577 26.0926C30.1445 27.8584 28.0368 30.387 26.3124 33.5033C22.3029 40.7444 21.8605 48.1721 25.3262 50.0989C26.8703 50.9804 28.4989 50.3193 30.1783 48.6976C29.8639 50.4448 29.7064 52.2167 29.7077 53.9921C29.7077 62.2928 32.9199 69 36.8731 69C39.2568 69 40.4374 66.5561 41.0038 62.8183C41.5673 66.5307 42.7508 69 45.1176 69C49.0539 69 52.2914 62.29 52.2914 53.9921C52.2914 52.1275 52.1167 50.3475 51.818 48.7004C53.5086 50.3249 55.1316 50.9974 56.6813 50.1046L56.6842 50.0989ZM41.001 26.1773C42.5996 26.2013 44.1871 25.9062 45.6709 25.3092C47.1547 24.7122 48.5053 23.8252 49.6441 22.6999C50.7829 21.5746 51.687 20.2334 52.304 18.7545C52.921 17.2755 53.2384 15.6882 53.2379 14.0851C53.2373 12.482 52.9187 10.8949 52.3007 9.4164C51.6827 7.93786 50.7776 6.59734 49.6381 5.47284C48.4985 4.34834 47.1473 3.46233 45.6631 2.86638C44.1788 2.27042 42.5912 1.97642 40.9925 2.00148C37.8272 2.0511 34.8082 3.34705 32.5877 5.60948C30.3671 7.87191 29.1231 10.9193 29.1242 14.0936C29.1253 17.2679 30.3715 20.3144 32.5936 22.5752C34.8158 24.8361 37.8356 26.1299 41.001 26.1773V26.1773ZM65.2161 33.8451C67.7909 33.7697 70.235 32.691 72.0296 30.8382C73.8243 28.9854 74.8281 26.5042 74.8281 23.9214C74.8281 21.3385 73.8243 18.8573 72.0296 17.0045C70.235 15.1517 67.7909 14.073 65.2161 13.9976C62.5905 13.998 60.0725 15.0442 58.2162 16.906C56.3599 18.7679 55.3172 21.2929 55.3176 23.9256C55.318 26.5583 56.3613 29.083 58.2182 30.9443C60.0751 32.8057 62.5933 33.8512 65.2189 33.8508L65.2161 33.8451ZM77.2757 39.863C75.8613 37.2976 74.1312 35.2239 72.3955 33.7745C70.3193 35.317 67.8057 36.1535 65.2217 36.1619C63.0916 36.1619 61.1079 35.577 59.3722 34.608C60.7698 37.696 61.6348 40.8236 61.7954 43.6206C62.0603 47.9037 60.7247 51.0793 58.0536 52.5626C57.4811 52.878 56.8586 53.0921 56.2136 53.1954C56.053 54.3029 55.9431 55.4556 55.9431 56.6705C55.9431 63.4879 58.5776 68.9943 61.8264 68.9943C63.7819 68.9943 64.7568 66.9884 65.2189 63.9202C65.6782 66.9715 66.6503 68.9943 68.6001 68.9943C71.8264 68.9943 74.4891 63.4851 74.4891 56.6762C74.4891 55.142 74.3397 53.6814 74.0946 52.3252C75.4809 53.6616 76.8165 54.2125 78.0901 53.478C80.9275 51.8958 80.5612 45.7989 77.2729 39.8601L77.2757 39.863ZM16.7859 33.8451C18.7428 33.844 20.6555 33.2611 22.2821 32.1702C23.9087 31.0792 25.1761 29.5292 25.9243 27.716C26.6724 25.9028 26.8675 23.9079 26.4851 21.9836C26.1026 20.0592 25.1597 18.2917 23.7755 16.9046C22.3914 15.5175 20.6281 14.5731 18.7087 14.1907C16.7893 13.8083 14.7999 14.0051 12.992 14.7562C11.1841 15.5074 9.63898 16.7792 8.55188 18.4108C7.46478 20.0424 6.88455 21.9606 6.88455 23.9228C6.8853 26.5556 7.92871 29.0804 9.7854 30.9421C11.6421 32.8038 14.1601 33.85 16.7859 33.8508V33.8451ZM23.9287 52.5541C19.4429 50.0537 19.0316 42.5978 22.6438 34.6023C20.8583 35.6187 18.8418 36.1568 16.7887 36.1647C14.095 36.1647 11.6267 35.2606 9.60361 33.7745C7.87074 35.221 6.1435 37.2948 4.72339 39.8573C1.43516 45.8017 1.0745 51.8986 3.91472 53.4751C5.18267 54.204 6.52107 53.6588 7.89891 52.3281C7.64583 53.7626 7.51855 55.2165 7.51853 56.6733C7.51853 63.4879 10.1531 68.9915 13.4018 68.9915C15.3573 68.9915 16.3322 66.9856 16.7943 63.9202C17.2592 66.9715 18.2313 68.9943 20.1755 68.9943C23.4074 68.9943 26.0645 63.4851 26.0645 56.6762C26.0645 55.4528 25.9518 54.2973 25.7912 53.1898C25.139 53.0867 24.5098 52.8706 23.9315 52.5513L23.9287 52.5541Z" stroke="#428A35" stroke-width="4"/>
</svg>
