<svg width="52" height="45" viewBox="0 0 52 45" fill="none" xmlns="http://www.w3.org/2000/svg">
<path d="M35.6518 31.4337C37.7794 30.2546 37.5037 25.711 35.038 21.2781C33.9803 19.3694 32.6798 17.8238 31.3793 16.7432C29.8243 17.8939 27.9406 18.518 26.0041 18.524C24.0646 18.5197 22.1776 17.8956 20.6201 16.7432C19.3197 17.8238 18.0227 19.3711 16.9615 21.2781C14.4941 25.7093 14.2218 30.2546 16.3546 31.4337C17.3048 31.9731 18.307 31.5685 19.3405 30.5761C19.147 31.6453 19.0501 32.7296 19.0509 33.8161C19.0509 38.8956 21.0276 43 23.4604 43C24.9273 43 25.6538 41.5045 26.0023 39.2172C26.3491 41.4889 27.0774 43 28.5339 43C30.9562 43 32.9486 38.8939 32.9486 33.8161C32.9486 32.675 32.8411 31.5858 32.6573 30.5779C33.6976 31.572 34.6964 31.9835 35.6501 31.4371L35.6518 31.4337ZM26.0006 16.7951C26.9844 16.8097 27.9613 16.6291 28.8744 16.2638C29.7875 15.8985 30.6187 15.3557 31.3194 14.6671C32.0202 13.9785 32.5766 13.1578 32.9563 12.2527C33.336 11.3477 33.5313 10.3764 33.531 9.39536C33.5306 8.41433 33.3346 7.44317 32.9543 6.53839C32.574 5.63362 32.017 4.8133 31.3157 4.12517C30.6145 3.43704 29.783 2.89486 28.8696 2.53017C27.9562 2.16548 26.9792 1.98557 25.9954 2.0009C24.0475 2.03127 22.1897 2.82431 20.8232 4.20879C19.4567 5.59326 18.6911 7.45807 18.6918 9.40055C18.6925 11.343 19.4594 13.2073 20.8268 14.5908C22.1943 15.9743 24.0527 16.7661 26.0006 16.7951V16.7951ZM40.9022 21.4873C42.4867 21.4411 43.9908 20.7811 45.0952 19.6473C46.1996 18.5134 46.8173 16.9951 46.8173 15.4146C46.8173 13.834 46.1996 12.3157 45.0952 11.1819C43.9908 10.048 42.4867 9.38798 40.9022 9.34181C39.2864 9.34204 37.7369 9.98224 36.5946 11.1216C35.4522 12.2609 34.8106 13.8061 34.8108 15.4172C34.8111 17.0282 35.4531 18.5732 36.5958 19.7122C37.7385 20.8512 39.2882 21.491 40.9039 21.4908L40.9022 21.4873ZM48.3235 25.1699C47.4531 23.6 46.3884 22.331 45.3203 21.4441C44.0427 22.388 42.4958 22.8999 40.9057 22.905C39.5948 22.905 38.3741 22.5471 37.306 21.9541C38.166 23.8438 38.6983 25.7577 38.7972 27.4693C38.9602 30.0903 38.1383 32.0336 36.4945 32.9413C36.1422 33.1343 35.7592 33.2653 35.3622 33.3285C35.2634 34.0063 35.1958 34.7117 35.1958 35.4551C35.1958 39.6269 36.817 42.9965 38.8163 42.9965C40.0196 42.9965 40.6196 41.769 40.9039 39.8914C41.1866 41.7586 41.7848 42.9965 42.9847 42.9965C44.9701 42.9965 46.6087 39.6252 46.6087 35.4585C46.6087 34.5198 46.5168 33.6259 46.3659 32.796C47.219 33.6138 48.0409 33.9509 48.8246 33.5014C50.5707 32.5332 50.3453 28.8023 48.3218 25.1681L48.3235 25.1699ZM11.099 21.4873C12.3033 21.4866 13.4803 21.1299 14.4813 20.4623C15.4823 19.7947 16.2622 18.8462 16.7226 17.7366C17.183 16.6271 17.3031 15.4063 17.0677 14.2287C16.8324 13.0511 16.2521 11.9696 15.4003 11.1207C14.5485 10.2719 13.4635 9.69396 12.2823 9.45995C11.1011 9.22595 9.87685 9.34639 8.76432 9.80606C7.65178 10.2657 6.70091 11.044 6.03193 12.0424C5.36294 13.0409 5.00588 14.2147 5.00588 15.4154C5.00634 17.0266 5.64844 18.5716 6.79102 19.7108C7.9336 20.8501 9.48314 21.4903 11.099 21.4908V21.4873ZM15.4946 32.9361C12.7341 31.406 12.481 26.8434 14.7039 21.9507C13.6051 22.5726 12.3642 22.9019 11.1007 22.9067C9.44307 22.9067 7.92412 22.3535 6.67914 21.4441C5.61276 22.3293 4.54985 23.5983 3.67593 25.1664C1.65241 28.804 1.43046 32.535 3.17829 33.4997C3.95857 33.9458 4.7822 33.6121 5.6301 32.7978C5.47436 33.6756 5.39603 34.5654 5.39602 35.4568C5.39602 39.6269 7.01726 42.9948 9.01651 42.9948C10.2199 42.9948 10.8198 41.7673 11.1042 39.8914C11.3903 41.7586 11.9885 42.9965 13.1849 42.9965C15.1738 42.9965 16.8089 39.6252 16.8089 35.4585C16.8089 34.7099 16.7395 34.0028 16.6407 33.3251C16.2394 33.262 15.8522 33.1298 15.4963 32.9344L15.4946 32.9361Z" stroke="#428A35" stroke-width="3"/>
</svg>
