<svg viewBox="0 0 68 71" fill="none" xmlns="http://www.w3.org/2000/svg">
<path d="M12.582 20.479V3H54.5927L64.7318 13.1961V67.0898H47.3505" stroke="#428A35" stroke-width="5" stroke-linecap="round" stroke-linejoin="round"/>
<path fill-rule="evenodd" clip-rule="evenodd" d="M26.5984 28.1275C25.8857 25.695 22.4616 25.695 21.749 28.1275L21.4767 29.0568C21.2476 29.8373 20.8479 30.5565 20.3067 31.1616C19.7655 31.7667 19.0966 32.2423 18.3489 32.5538C17.6012 32.8652 16.7937 33.0045 15.9855 32.9614C15.1774 32.9184 14.389 32.6941 13.6782 32.3049L12.8323 31.8388C10.6191 30.6299 8.19732 33.0624 9.40243 35.2909L9.86303 36.1416C10.25 36.8564 10.473 37.6491 10.5159 38.4618C10.5587 39.2745 10.4202 40.0866 10.1105 40.8385C9.80079 41.5904 9.32777 42.2631 8.72606 42.8073C8.12436 43.3516 7.40921 43.7535 6.633 43.9838L5.70889 44.2577C3.28999 44.9743 3.28999 48.4177 5.70889 49.1343L6.633 49.4082C7.40962 49.6384 8.12515 50.0404 8.72716 50.5849C9.32917 51.1293 9.80238 51.8024 10.1121 52.5546C10.4218 53.3069 10.5602 54.1193 10.5171 54.9324C10.474 55.7454 10.2505 56.5385 9.86303 57.2533L9.39953 58.1011C8.19732 60.3267 10.6162 62.7622 12.8323 61.5503L13.6782 61.0871C14.3892 60.698 15.1777 60.4738 15.9861 60.4309C16.7944 60.3881 17.602 60.5276 18.3497 60.8393C19.0974 61.151 19.7663 61.627 20.3074 62.2325C20.8485 62.8379 21.248 63.5574 21.4767 64.3382L21.749 65.2646C22.4616 67.6971 25.8857 67.6971 26.5984 65.2646L26.8707 64.3353C27.0996 63.5543 27.4994 62.8347 28.0408 62.2293C28.5822 61.624 29.2515 61.1481 29.9995 60.8366C30.7476 60.5251 31.5555 60.386 32.364 60.4293C33.1725 60.4727 33.9611 60.6974 34.672 61.0871L35.515 61.5532C37.7282 62.7622 40.15 60.3297 38.9449 58.1011L38.4843 57.2533C38.0968 56.5383 37.8735 55.745 37.8305 54.9318C37.7876 54.1186 37.9263 53.3061 38.2363 52.5538C38.5463 51.8015 39.0198 51.1285 39.6222 50.5842C40.2245 50.0399 40.9404 49.638 41.7172 49.4082L42.6384 49.1343C45.0573 48.4177 45.0573 44.9743 42.6384 44.2577L41.7143 43.9838C40.9381 43.7535 40.223 43.3516 39.6213 42.8073C39.0196 42.2631 38.5465 41.5904 38.2369 40.8385C37.9272 40.0866 37.7887 39.2745 37.8315 38.4618C37.8743 37.6491 38.0973 36.8564 38.4843 36.1416L38.9478 35.2909C40.15 33.0653 37.7311 30.6299 35.515 31.8417L34.672 32.3049C33.961 32.6952 33.1721 32.9204 32.3633 32.964C31.5544 33.0076 30.7461 32.8686 29.9977 32.5571C29.2493 32.2456 28.5797 31.7695 28.0381 31.1638C27.4965 30.5581 27.0966 29.8381 26.8678 29.0568L26.5955 28.1275H26.5984ZM18.9709 27.303C20.4975 22.0884 27.8498 22.0884 29.3765 27.303L29.6488 28.2323C29.7554 28.5963 29.9417 28.9317 30.1939 29.2139C30.4462 29.4962 30.7581 29.718 31.1067 29.8633C31.4553 30.0085 31.8318 30.0735 32.2086 30.0534C32.5854 30.0333 32.953 29.9287 33.2844 29.7472L34.1303 29.2811C38.8812 26.6825 44.0782 31.9058 41.4884 36.6834L41.0278 37.5341C40.8473 37.8673 40.7432 38.237 40.7233 38.6159C40.7033 38.9948 40.7679 39.3735 40.9123 39.724C41.0568 40.0746 41.2774 40.3882 41.558 40.6419C41.8387 40.8956 42.1722 41.0829 42.5342 41.1901L43.4583 41.464C48.6437 42.9992 48.6437 50.3928 43.4583 51.9281L42.5342 52.2019C42.1722 52.3091 41.8387 52.4964 41.558 52.7501C41.2774 53.0038 41.0568 53.3174 40.9123 53.668C40.7679 54.0186 40.7033 54.3972 40.7233 54.7761C40.7432 55.1551 40.8473 55.5247 41.0278 55.8579L41.4913 56.7086C44.0782 61.4862 38.8783 66.7124 34.1303 64.108L33.2844 63.6449C32.953 63.4633 32.5854 63.3587 32.2086 63.3386C31.8318 63.3185 31.4553 63.3835 31.1067 63.5288C30.7581 63.674 30.4462 63.8959 30.1939 64.1781C29.9417 64.4603 29.7554 64.7957 29.6488 65.1597L29.3765 66.089C27.8498 71.3036 20.4975 71.3036 18.9709 66.089L18.6985 65.1597C18.5919 64.7957 18.4057 64.4603 18.1534 64.1781C17.9011 63.8959 17.5893 63.674 17.2407 63.5288C16.8921 63.3835 16.5155 63.3185 16.1387 63.3386C15.7619 63.3587 15.3943 63.4633 15.0629 63.6449L14.2171 64.111C9.46616 66.7124 4.27204 61.4833 6.85896 56.7086L7.31956 55.8579C7.50006 55.5247 7.6041 55.1551 7.62408 54.7761C7.64406 54.3972 7.57945 54.0186 7.43501 53.668C7.29057 53.3174 7.06994 53.0038 6.78931 52.7501C6.50868 52.4964 6.17515 52.3091 5.81318 52.2019L4.88907 51.9281C-0.296358 50.3928 -0.296358 42.9992 4.88907 41.464L5.81318 41.1901C6.17515 41.0829 6.50868 40.8956 6.78931 40.6419C7.06994 40.3882 7.29057 40.0746 7.43501 39.724C7.57945 39.3735 7.64406 38.9948 7.62408 38.6159C7.6041 38.237 7.50006 37.8673 7.31956 37.5341L6.85606 36.6834C4.27204 31.9058 9.46906 26.6825 14.2171 29.284L15.0629 29.7472C15.3943 29.9287 15.7619 30.0333 16.1387 30.0534C16.5155 30.0735 16.8921 30.0085 17.2407 29.8633C17.5893 29.718 17.9011 29.4962 18.1534 29.2139C18.4057 28.9317 18.5919 28.5963 18.6985 28.2323L18.9709 27.303Z" fill="#428A35" stroke="#428A35" stroke-width="2"/>
<path fill-rule="evenodd" clip-rule="evenodd" d="M24.1743 40.1532C22.4487 40.1532 20.7938 40.8425 19.5736 42.0696C18.3534 43.2966 17.6679 44.9608 17.6679 46.6961C17.6679 48.4315 18.3534 50.0957 19.5736 51.3227C20.7938 52.5498 22.4487 53.2391 24.1743 53.2391C25.8999 53.2391 27.5548 52.5498 28.775 51.3227C29.9952 50.0957 30.6807 48.4315 30.6807 46.6961C30.6807 44.9608 29.9952 43.2966 28.775 42.0696C27.5548 40.8425 25.8999 40.1532 24.1743 40.1532ZM14.771 46.6961C14.771 45.4543 15.0142 44.2247 15.4868 43.0774C15.9593 41.9302 16.652 40.8877 17.5252 40.0096C18.3983 39.1316 19.4349 38.435 20.5758 37.9598C21.7167 37.4846 22.9394 37.24 24.1743 37.24C25.4092 37.24 26.6319 37.4846 27.7728 37.9598C28.9136 38.435 29.9503 39.1316 30.8234 40.0096C31.6966 40.8877 32.3893 41.9302 32.8618 43.0774C33.3344 44.2247 33.5776 45.4543 33.5776 46.6961C33.5776 49.2041 32.5869 51.6093 30.8234 53.3827C29.06 55.156 26.6682 56.1523 24.1743 56.1523C21.6804 56.1523 19.2886 55.156 17.5252 53.3827C15.7617 51.6093 14.771 49.2041 14.771 46.6961Z" fill="#428A35" stroke="#428A35" stroke-width="2"/>
</svg>
