<svg viewBox="0 0 67 67" fill="none" xmlns="http://www.w3.org/2000/svg">
<g clip-path="url(#clip0)">
<path fill-rule="evenodd" clip-rule="evenodd" d="M7.32812 0C5.38459 0 3.52065 0.772068 2.14636 2.14636C0.772068 3.52065 0 5.38459 0 7.32812L0 59.6719C0 63.717 3.283 67 7.32812 67H59.6719C61.6154 67 63.4794 66.2279 64.8536 64.8536C66.2279 63.4794 67 61.6154 67 59.6719V7.32812C67 5.38459 66.2279 3.52065 64.8536 2.14636C63.4794 0.772068 61.6154 0 59.6719 0H7.32812ZM6.28125 7.32812C6.28125 7.05048 6.39155 6.7842 6.58787 6.58787C6.7842 6.39155 7.05048 6.28125 7.32812 6.28125H59.6719C59.9495 6.28125 60.2158 6.39155 60.4121 6.58787C60.6085 6.7842 60.7188 7.05048 60.7188 7.32812V59.6719C60.7188 59.9495 60.6085 60.2158 60.4121 60.4121C60.2158 60.6085 59.9495 60.7188 59.6719 60.7188H7.32812C7.05048 60.7188 6.7842 60.6085 6.58787 60.4121C6.39155 60.2158 6.28125 59.9495 6.28125 59.6719V7.32812ZM49.2031 12.5625C48.3702 12.5625 47.5714 12.8934 46.9824 13.4824C46.3934 14.0713 46.0625 14.8702 46.0625 15.7031V47.1094C46.0625 47.9423 46.3934 48.7411 46.9824 49.3301C47.5714 49.9191 48.3702 50.25 49.2031 50.25C50.0361 50.25 50.8349 49.9191 51.4239 49.3301C52.0129 48.7411 52.3438 47.9423 52.3438 47.1094V15.7031C52.3438 14.8702 52.0129 14.0713 51.4239 13.4824C50.8349 12.8934 50.0361 12.5625 49.2031 12.5625ZM14.6562 15.7031C14.6562 14.8702 14.9871 14.0713 15.5761 13.4824C16.1651 12.8934 16.9639 12.5625 17.7969 12.5625C18.6298 12.5625 19.4287 12.8934 20.0176 13.4824C20.6066 14.0713 20.9375 14.8702 20.9375 15.7031V38.7344C20.9375 39.5673 20.6066 40.3661 20.0176 40.9551C19.4287 41.5441 18.6298 41.875 17.7969 41.875C16.9639 41.875 16.1651 41.5441 15.5761 40.9551C14.9871 40.3661 14.6562 39.5673 14.6562 38.7344V15.7031ZM33.5 12.5625C32.6671 12.5625 31.8682 12.8934 31.2792 13.4824C30.6903 14.0713 30.3594 14.8702 30.3594 15.7031V30.3594C30.3594 31.1923 30.6903 31.9912 31.2792 32.5801C31.8682 33.1691 32.6671 33.5 33.5 33.5C34.3329 33.5 35.1318 33.1691 35.7208 32.5801C36.3097 31.9912 36.6406 31.1923 36.6406 30.3594V15.7031C36.6406 14.8702 36.3097 14.0713 35.7208 13.4824C35.1318 12.8934 34.3329 12.5625 33.5 12.5625Z" fill="#428A35"/>
</g>
<defs>
<clipPath id="clip0">
<rect width="67" height="67" fill="white"/>
</clipPath>
</defs>
</svg>
