<svg viewBox="0 0 50 64" fill="none" xmlns="http://www.w3.org/2000/svg">
<path d="M12.3249 18.35C13.1007 18.35 13.8446 18.0418 14.3932 17.4933C14.9417 16.9447 15.2499 16.2008 15.2499 15.425C15.2499 14.6492 14.9417 13.9053 14.3932 13.3567C13.8446 12.8082 13.1007 12.5 12.3249 12.5C11.5491 12.5 10.8052 12.8082 10.2566 13.3567C9.70807 13.9053 9.3999 14.6492 9.3999 15.425C9.3999 16.2008 9.70807 16.9447 10.2566 17.4933C10.8052 18.0418 11.5491 18.35 12.3249 18.35Z" fill="#428A35" stroke="#428A35" stroke-width="1.5"/>
<path d="M15.2499 27.125C15.2499 27.9007 14.9417 28.6447 14.3932 29.1932C13.8446 29.7418 13.1007 30.05 12.3249 30.05C11.5491 30.05 10.8052 29.7418 10.2566 29.1932C9.70807 28.6447 9.3999 27.9007 9.3999 27.125C9.3999 26.3492 9.70807 25.6052 10.2566 25.0567C10.8052 24.5081 11.5491 24.2 12.3249 24.2C13.1007 24.2 13.8446 24.5081 14.3932 25.0567C14.9417 25.6052 15.2499 26.3492 15.2499 27.125Z" fill="#428A35" stroke="#428A35" stroke-width="1.5"/>
<path d="M12.3249 41.7501C12.709 41.7501 13.0894 41.6745 13.4443 41.5275C13.7991 41.3805 14.1216 41.165 14.3932 40.8934C14.6648 40.6218 14.8803 40.2994 15.0273 39.9445C15.1742 39.5896 15.2499 39.2093 15.2499 38.8251C15.2499 38.441 15.1742 38.0607 15.0273 37.7058C14.8803 37.3509 14.6648 37.0285 14.3932 36.7569C14.1216 36.4852 13.7991 36.2698 13.4443 36.1228C13.0894 35.9758 12.709 35.9001 12.3249 35.9001C11.5491 35.9001 10.8052 36.2083 10.2566 36.7569C9.70807 37.3054 9.3999 38.0494 9.3999 38.8251C9.3999 39.6009 9.70807 40.3449 10.2566 40.8934C10.8052 41.442 11.5491 41.7501 12.3249 41.7501Z" fill="#428A35" stroke="#428A35" stroke-width="1.5"/>
<path d="M26.9501 15.425C26.9501 16.2008 26.6419 16.9447 26.0934 17.4933C25.5448 18.0418 24.8009 18.35 24.0251 18.35C23.2493 18.35 22.5054 18.0418 21.9568 17.4933C21.4083 16.9447 21.1001 16.2008 21.1001 15.425C21.1001 14.6492 21.4083 13.9053 21.9568 13.3567C22.5054 12.8082 23.2493 12.5 24.0251 12.5C24.8009 12.5 25.5448 12.8082 26.0934 13.3567C26.6419 13.9053 26.9501 14.6492 26.9501 15.425Z" fill="#428A35" stroke="#428A35" stroke-width="1.5"/>
<path d="M24.0251 30.05C24.8009 30.05 25.5448 29.7418 26.0934 29.1932C26.6419 28.6447 26.9501 27.9007 26.9501 27.125C26.9501 26.3492 26.6419 25.6052 26.0934 25.0567C25.5448 24.5081 24.8009 24.2 24.0251 24.2C23.2493 24.2 22.5054 24.5081 21.9568 25.0567C21.4083 25.6052 21.1001 26.3492 21.1001 27.125C21.1001 27.9007 21.4083 28.6447 21.9568 29.1932C22.5054 29.7418 23.2493 30.05 24.0251 30.05Z" fill="#428A35" stroke="#428A35" stroke-width="1.5"/>
<path d="M26.9501 38.8251C26.9501 39.6009 26.6419 40.3449 26.0934 40.8934C25.5448 41.442 24.8009 41.7501 24.0251 41.7501C23.2493 41.7501 22.5054 41.442 21.9568 40.8934C21.4083 40.3449 21.1001 39.6009 21.1001 38.8251C21.1001 38.0494 21.4083 37.3054 21.9568 36.7569C22.5054 36.2083 23.2493 35.9001 24.0251 35.9001C24.8009 35.9001 25.5448 36.2083 26.0934 36.7569C26.6419 37.3054 26.9501 38.0494 26.9501 38.8251Z" fill="#428A35" stroke="#428A35" stroke-width="1.5"/>
<path d="M35.7253 41.7501C36.1094 41.7501 36.4898 41.6745 36.8446 41.5275C37.1995 41.3805 37.522 41.165 37.7936 40.8934C38.0652 40.6218 38.2806 40.2994 38.4276 39.9445C38.5746 39.5896 38.6503 39.2093 38.6503 38.8251C38.6503 38.441 38.5746 38.0607 38.4276 37.7058C38.2806 37.3509 38.0652 37.0285 37.7936 36.7569C37.522 36.4852 37.1995 36.2698 36.8446 36.1228C36.4898 35.9758 36.1094 35.9001 35.7253 35.9001C34.9495 35.9001 34.2056 36.2083 33.657 36.7569C33.1085 37.3054 32.8003 38.0494 32.8003 38.8251C32.8003 39.6009 33.1085 40.3449 33.657 40.8934C34.2056 41.442 34.9495 41.7501 35.7253 41.7501Z" fill="#428A35" stroke="#428A35" stroke-width="1.5"/>
<path d="M3.5501 63.2C3.03293 63.2 2.53694 62.9946 2.17124 62.6289C1.80554 62.2632 1.6001 61.7672 1.6001 61.25V6.65005C1.6001 5.09853 2.21643 3.61056 3.31352 2.51347C4.41061 1.41639 5.89858 0.800049 7.4501 0.800049H30.8501C32.4016 0.800049 33.8896 1.41639 34.9867 2.51347C36.0838 3.61056 36.7001 5.09853 36.7001 6.65005V24.2H42.5501C44.1016 24.2 45.5896 24.8164 46.6867 25.9135C47.7838 27.0106 48.4001 28.4985 48.4001 30.05V61.25C48.4001 61.7672 48.1946 62.2632 47.829 62.6289C47.4633 62.9946 46.9673 63.2 46.4501 63.2H3.5501ZM5.5001 6.65005V59.3H13.3001V49.55C13.3001 49.0329 13.5055 48.5369 13.8712 48.1712C14.2369 47.8055 14.7329 47.6 15.2501 47.6H34.7501C35.2673 47.6 35.7633 47.8055 36.129 48.1712C36.4946 48.5369 36.7001 49.0329 36.7001 49.55V59.3H44.5001V30.05C44.5001 29.5329 44.2946 29.0369 43.929 28.6712C43.5633 28.3055 43.0673 28.1 42.5501 28.1H34.7501C34.2329 28.1 33.7369 27.8946 33.3712 27.5289C33.0055 27.1632 32.8001 26.6672 32.8001 26.15V6.65005C32.8001 6.13288 32.5947 5.63689 32.229 5.27119C31.8633 4.90549 31.3673 4.70005 30.8501 4.70005H7.4501C6.93292 4.70005 6.43694 4.90549 6.07124 5.27119C5.70554 5.63689 5.5001 6.13288 5.5001 6.65005ZM32.8001 51.5H26.9501V59.3H32.8001V51.5ZM23.0501 51.5H17.2001V59.3H23.0501V51.5Z" fill="#428A35" stroke="#428A35" stroke-width="1.5"/>
</svg>
