<svg viewBox="0 0 47 65" fill="none" xmlns="http://www.w3.org/2000/svg">
<path fill-rule="evenodd" clip-rule="evenodd" d="M39.1667 4.01458H7.83333C6.79457 4.01458 5.79835 4.43755 5.06383 5.19043C4.32931 5.94331 3.91667 6.96443 3.91667 8.02917V56.2042C3.91667 57.2689 4.32931 58.29 5.06383 59.0429C5.79835 59.7958 6.79457 60.2187 7.83333 60.2187H39.1667C40.2054 60.2187 41.2017 59.7958 41.9362 59.0429C42.6707 58.29 43.0833 57.2689 43.0833 56.2042V8.02917C43.0833 6.96443 42.6707 5.94331 41.9362 5.19043C41.2017 4.43755 40.2054 4.01458 39.1667 4.01458ZM7.83333 0C5.7558 0 3.76336 0.845928 2.29433 2.35169C0.825295 3.85745 0 5.8997 0 8.02917V56.2042C0 58.3336 0.825295 60.3759 2.29433 61.8816C3.76336 63.3874 5.7558 64.2333 7.83333 64.2333H39.1667C41.2442 64.2333 43.2366 63.3874 44.7057 61.8816C46.1747 60.3759 47 58.3336 47 56.2042V8.02917C47 5.8997 46.1747 3.85745 44.7057 2.35169C43.2366 0.845928 41.2442 0 39.1667 0L7.83333 0Z" fill="#428A35"/>
<path d="M7.8335 10.0363C7.8335 9.50398 8.03982 8.99342 8.40708 8.61698C8.77434 8.24054 9.27245 8.02905 9.79183 8.02905H37.2085C37.7279 8.02905 38.226 8.24054 38.5932 8.61698C38.9605 8.99342 39.1668 9.50398 39.1668 10.0363V18.0655C39.1668 18.5979 38.9605 19.1084 38.5932 19.4849C38.226 19.8613 37.7279 20.0728 37.2085 20.0728H9.79183C9.27245 20.0728 8.77434 19.8613 8.40708 19.4849C8.03982 19.1084 7.8335 18.5979 7.8335 18.0655V10.0363ZM7.8335 26.0947C7.8335 25.5623 8.03982 25.0517 8.40708 24.6753C8.77434 24.2989 9.27245 24.0874 9.79183 24.0874H13.7085C14.2279 24.0874 14.726 24.2989 15.0932 24.6753C15.4605 25.0517 15.6668 25.5623 15.6668 26.0947V30.1093C15.6668 30.6416 15.4605 31.1522 15.0932 31.5286C14.726 31.9051 14.2279 32.1166 13.7085 32.1166H9.79183C9.27245 32.1166 8.77434 31.9051 8.40708 31.5286C8.03982 31.1522 7.8335 30.6416 7.8335 30.1093V26.0947ZM7.8335 38.1384C7.8335 37.6061 8.03982 37.0955 8.40708 36.7191C8.77434 36.3426 9.27245 36.1311 9.79183 36.1311H13.7085C14.2279 36.1311 14.726 36.3426 15.0932 36.7191C15.4605 37.0955 15.6668 37.6061 15.6668 38.1384V42.153C15.6668 42.6854 15.4605 43.1959 15.0932 43.5724C14.726 43.9488 14.2279 44.1603 13.7085 44.1603H9.79183C9.27245 44.1603 8.77434 43.9488 8.40708 43.5724C8.03982 43.1959 7.8335 42.6854 7.8335 42.153V38.1384ZM7.8335 50.1822C7.8335 49.6498 8.03982 49.1392 8.40708 48.7628C8.77434 48.3864 9.27245 48.1749 9.79183 48.1749H13.7085C14.2279 48.1749 14.726 48.3864 15.0932 48.7628C15.4605 49.1392 15.6668 49.6498 15.6668 50.1822V54.1968C15.6668 54.7291 15.4605 55.2397 15.0932 55.6161C14.726 55.9926 14.2279 56.204 13.7085 56.204H9.79183C9.27245 56.204 8.77434 55.9926 8.40708 55.6161C8.03982 55.2397 7.8335 54.7291 7.8335 54.1968V50.1822ZM19.5835 26.0947C19.5835 25.5623 19.7898 25.0517 20.1571 24.6753C20.5243 24.2989 21.0224 24.0874 21.5418 24.0874H25.4585C25.9779 24.0874 26.476 24.2989 26.8432 24.6753C27.2105 25.0517 27.4168 25.5623 27.4168 26.0947V30.1093C27.4168 30.6416 27.2105 31.1522 26.8432 31.5286C26.476 31.9051 25.9779 32.1166 25.4585 32.1166H21.5418C21.0224 32.1166 20.5243 31.9051 20.1571 31.5286C19.7898 31.1522 19.5835 30.6416 19.5835 30.1093V26.0947ZM19.5835 38.1384C19.5835 37.6061 19.7898 37.0955 20.1571 36.7191C20.5243 36.3426 21.0224 36.1311 21.5418 36.1311H25.4585C25.9779 36.1311 26.476 36.3426 26.8432 36.7191C27.2105 37.0955 27.4168 37.6061 27.4168 38.1384V42.153C27.4168 42.6854 27.2105 43.1959 26.8432 43.5724C26.476 43.9488 25.9779 44.1603 25.4585 44.1603H21.5418C21.0224 44.1603 20.5243 43.9488 20.1571 43.5724C19.7898 43.1959 19.5835 42.6854 19.5835 42.153V38.1384ZM19.5835 50.1822C19.5835 49.6498 19.7898 49.1392 20.1571 48.7628C20.5243 48.3864 21.0224 48.1749 21.5418 48.1749H25.4585C25.9779 48.1749 26.476 48.3864 26.8432 48.7628C27.2105 49.1392 27.4168 49.6498 27.4168 50.1822V54.1968C27.4168 54.7291 27.2105 55.2397 26.8432 55.6161C26.476 55.9926 25.9779 56.204 25.4585 56.204H21.5418C21.0224 56.204 20.5243 55.9926 20.1571 55.6161C19.7898 55.2397 19.5835 54.7291 19.5835 54.1968V50.1822ZM31.3335 26.0947C31.3335 25.5623 31.5398 25.0517 31.9071 24.6753C32.2743 24.2989 32.7724 24.0874 33.2918 24.0874H37.2085C37.7279 24.0874 38.226 24.2989 38.5932 24.6753C38.9605 25.0517 39.1668 25.5623 39.1668 26.0947V30.1093C39.1668 30.6416 38.9605 31.1522 38.5932 31.5286C38.226 31.9051 37.7279 32.1166 37.2085 32.1166H33.2918C32.7724 32.1166 32.2743 31.9051 31.9071 31.5286C31.5398 31.1522 31.3335 30.6416 31.3335 30.1093V26.0947ZM31.3335 38.1384C31.3335 37.6061 31.5398 37.0955 31.9071 36.7191C32.2743 36.3426 32.7724 36.1311 33.2918 36.1311H37.2085C37.7279 36.1311 38.226 36.3426 38.5932 36.7191C38.9605 37.0955 39.1668 37.6061 39.1668 38.1384V54.1968C39.1668 54.7291 38.9605 55.2397 38.5932 55.6161C38.226 55.9926 37.7279 56.204 37.2085 56.204H33.2918C32.7724 56.204 32.2743 55.9926 31.9071 55.6161C31.5398 55.2397 31.3335 54.7291 31.3335 54.1968V38.1384Z" fill="#428A35"/>
</svg>
