<svg viewBox="0 0 49 66" fill="none" xmlns="http://www.w3.org/2000/svg">
<path d="M47.5683 17.2071L30.6659 0.707143C30.1829 0.235714 29.7 0 28.9756 0H4.82927C2.17317 0 0 2.12143 0 4.71429V61.2857C0 63.8786 2.17317 66 4.82927 66H43.4634C46.1195 66 48.2927 63.8786 48.2927 61.2857V18.8571C48.2927 18.15 48.0512 17.6786 47.5683 17.2071ZM28.9756 10.4045C28.9756 8.63426 31.106 7.73677 32.3727 8.97333L38.9827 15.426C40.2661 16.6788 39.3791 18.8571 37.5857 18.8571H30.9756C29.871 18.8571 28.9756 17.9617 28.9756 16.8571V10.4045ZM43.4634 59.2857C43.4634 60.3903 42.568 61.2857 41.4634 61.2857H6.82927C5.7247 61.2857 4.82927 60.3903 4.82927 59.2857V6.71429C4.82927 5.60972 5.7247 4.71429 6.82927 4.71429H22.1463C23.2509 4.71429 24.1463 5.60972 24.1463 6.71429V18.8571C24.1463 21.45 26.3195 23.5714 28.9756 23.5714H41.4634C42.568 23.5714 43.4634 24.4669 43.4634 25.5714V59.2857Z" fill="#428A35"/>
<path d="M9.65869 49.1428C9.65869 48.0383 10.5541 47.1428 11.6587 47.1428H36.6343C37.7389 47.1428 38.6343 48.0383 38.6343 49.1428V49.8571C38.6343 50.9617 37.7389 51.8571 36.6343 51.8571H11.6587C10.5541 51.8571 9.65869 50.9617 9.65869 49.8571V49.1428Z" fill="#428A35"/>
<path d="M9.65869 35C9.65869 33.8954 10.5541 33 11.6587 33H36.6343C37.7389 33 38.6343 33.8954 38.6343 35V35.7143C38.6343 36.8189 37.7389 37.7143 36.6343 37.7143H11.6587C10.5541 37.7143 9.65869 36.8189 9.65869 35.7143V35Z" fill="#428A35"/>
</svg>
