<svg viewBox="0 0 69 74" fill="none" xmlns="http://www.w3.org/2000/svg">
<path d="M34.5 22.4375C35.6313 22.4375 36.7163 21.9881 37.5163 21.1881C38.3162 20.3882 38.7656 19.3032 38.7656 18.1719C38.7656 17.0406 38.3162 15.9556 37.5163 15.1556C36.7163 14.3557 35.6313 13.9062 34.5 13.9062C33.3687 13.9062 32.2837 14.3557 31.4837 15.1556C30.6838 15.9556 30.2344 17.0406 30.2344 18.1719C30.2344 19.3032 30.6838 20.3882 31.4837 21.1881C32.2837 21.9881 33.3687 22.4375 34.5 22.4375Z" fill="#428A35"/>
<path d="M38.6861 2.26966C37.5029 1.3081 36.0247 0.783203 34.5001 0.783203C32.9754 0.783203 31.4973 1.3081 30.3141 2.26966L1.86521 25.395C-1.59279 28.2104 0.397834 33.8125 4.85683 33.8125H6.06258V57.7C2.68421 59.4234 0.375084 62.9325 0.375084 66.9877V70.7813C0.375084 71.5355 0.674693 72.2588 1.208 72.7921C1.74131 73.3254 2.46462 73.625 3.21883 73.625H65.7813C66.5355 73.625 67.2589 73.3254 67.7922 72.7921C68.3255 72.2588 68.6251 71.5355 68.6251 70.7813V66.9877C68.6251 62.9382 66.316 59.4234 62.9376 57.7V33.8125H64.1433C68.6023 33.8125 70.593 28.2104 67.1293 25.395L38.6918 2.26966H38.6861ZM33.9086 6.68316C34.0776 6.54649 34.2884 6.47194 34.5058 6.47194C34.7231 6.47194 34.9339 6.54649 35.103 6.68316L61.4645 28.125H7.52996L33.9086 6.68316ZM57.2501 56.5625H51.5626V33.8125H57.2501V56.5625ZM45.8751 56.5625H37.3438V33.8125H45.8751V56.5625ZM31.6563 56.5625H23.1251V33.8125H31.6563V56.5625ZM58.1999 62.25C60.8161 62.25 62.9376 64.3715 62.9376 66.9877V67.9375H6.06258V66.9877C6.06258 64.3715 8.18402 62.25 10.8003 62.25H58.1999ZM17.4376 56.5625H11.7501V33.8125H17.4376V56.5625Z" fill="#428A35"/>
</svg>
