<svg width="20" height="20" viewBox="0 0 20 20" fill="none" xmlns="http://www.w3.org/2000/svg">
<path d="M18.3302 0.612793H1.64932C1.07815 0.613135 0.61512 1.07427 0.615234 1.64306V18.2476C0.615578 18.8162 1.07883 19.2771 1.65024 19.277H10.6311V12.0592H8.1958V9.23404H10.6311V7.15494C10.6311 4.74389 12.1098 3.43156 14.2704 3.43156C15.3053 3.43156 16.1946 3.50834 16.4539 3.54263V6.06259H14.964C13.7884 6.06259 13.5608 6.61862 13.5608 7.43472V9.23404H16.3715L16.0052 12.0592H13.5608V19.277H18.3302C18.9017 19.2771 19.3651 18.8161 19.3652 18.2472C19.3652 18.2471 19.3652 18.2469 19.3652 18.2467V1.64215C19.365 1.07359 18.9016 0.612679 18.3302 0.612793Z" fill="white"/>
</svg>
