<svg width="20" height="20" viewBox="0 0 20 20" fill="none" xmlns="http://www.w3.org/2000/svg">
<g clip-path="url(#clip0)">
<path d="M19.9807 5.85314C19.9338 4.79533 19.762 4.06809 19.5158 3.43793C19.2618 2.76903 18.8711 2.17017 18.3593 1.67233C17.8591 1.16674 17.2536 0.773876 16.5894 0.525033C15.9526 0.279987 15.2259 0.108926 14.1632 0.0622869C13.0926 0.0116978 12.7527 0 10.0373 0C7.32197 0 6.98209 0.0116978 5.91545 0.058337C4.85277 0.104976 4.12219 0.276189 3.48929 0.521083C2.81716 0.773877 2.21554 1.16279 1.71541 1.67233C1.2075 2.17017 0.812986 2.77298 0.562846 3.43413C0.316674 4.06809 0.144827 4.79138 0.0979735 5.84919C0.0471519 6.91491 0.0354004 7.25323 0.0354004 9.95618C0.0354004 12.6591 0.0471519 12.9974 0.0940055 14.0592C0.140859 15.117 0.312859 15.8443 0.559031 16.4744C0.812986 17.1433 1.2075 17.7422 1.71541 18.24C2.21554 18.7456 2.82113 19.1385 3.48532 19.3873C4.12219 19.6324 4.8488 19.8034 5.91163 19.8501C6.97812 19.8969 7.31815 19.9084 10.0335 19.9084C12.7489 19.9084 13.0888 19.8969 14.1554 19.8501C15.2181 19.8034 15.9487 19.6324 16.5816 19.3873C17.9257 18.87 18.9884 17.8122 19.508 16.4744C19.754 15.8405 19.926 15.117 19.9729 14.0592C20.0197 12.9974 20.0315 12.6591 20.0315 9.95618C20.0315 7.25323 20.0275 6.91491 19.9807 5.85314ZM18.1796 13.9814C18.1366 14.9537 17.9725 15.4787 17.8358 15.8288C17.4997 16.6961 16.8082 17.3844 15.9369 17.7189C15.5853 17.8551 15.054 18.0184 14.0811 18.0611C13.0262 18.1079 12.7098 18.1194 10.0413 18.1194C7.37279 18.1194 7.05245 18.1079 6.00137 18.0611C5.02462 18.0184 4.49717 17.8551 4.14554 17.7189C3.71196 17.5594 3.31729 17.3066 2.99694 16.9761C2.66485 16.6532 2.41089 16.2643 2.25064 15.8327C2.1139 15.4827 1.94983 14.9537 1.90695 13.9854C1.85994 12.9353 1.84834 12.6202 1.84834 9.96393C1.84834 7.30762 1.85994 6.98874 1.90695 5.94262C1.94983 4.97034 2.1139 4.44531 2.25064 4.09529C2.41089 3.66353 2.66485 3.27082 3.00091 2.95179C3.32507 2.62121 3.71577 2.36842 4.14951 2.20906C4.50114 2.07294 5.03255 1.90962 6.00534 1.86678C7.06023 1.82014 7.37676 1.80845 10.0451 1.80845C12.7176 1.80845 13.034 1.82014 14.0851 1.86678C15.0618 1.90962 15.5893 2.07294 15.9409 2.20906C16.3745 2.36842 16.7691 2.62121 17.0895 2.95179C17.4216 3.27462 17.6755 3.66353 17.8358 4.09529C17.9725 4.44531 18.1366 4.97414 18.1796 5.94262C18.2265 6.99269 18.2382 7.30762 18.2382 9.96393C18.2382 12.6202 18.2265 12.9314 18.1796 13.9814Z" fill="white"/>
<path d="M10.0371 4.8418C7.20074 4.8418 4.89941 7.13243 4.89941 9.95601C4.89941 12.7796 7.20074 15.0702 10.0371 15.0702C12.8737 15.0702 15.1749 12.7796 15.1749 9.95601C15.1749 7.13243 12.8737 4.8418 10.0371 4.8418ZM10.0371 13.2735C8.19702 13.2735 6.70442 11.7878 6.70442 9.95601C6.70442 8.12416 8.19702 6.63855 10.0371 6.63855C11.8774 6.63855 13.3698 8.12416 13.3698 9.95601C13.3698 11.7878 11.8774 13.2735 10.0371 13.2735Z" fill="white"/>
<path d="M16.578 4.64023C16.578 5.29956 16.0409 5.83416 15.3784 5.83416C14.716 5.83416 14.179 5.29956 14.179 4.64023C14.179 3.98074 14.716 3.44629 15.3784 3.44629C16.0409 3.44629 16.578 3.98074 16.578 4.64023Z" fill="white"/>
</g>
<defs>
<clipPath id="clip0">
<rect width="20" height="19.9085" fill="white"/>
</clipPath>
</defs>
</svg>
