<svg width="66" height="67" viewBox="0 0 66 67" fill="none" xmlns="http://www.w3.org/2000/svg">
<path fill-rule="evenodd" clip-rule="evenodd" d="M0 33.5466V37.8745C3.65164 40.3089 10.8197 42.4729 16.2295 42.0671C26.5082 41.2557 35.0287 31.2475 48.959 31.9237C55.5861 32.3294 60.8606 35.8458 65.7295 36.3868L66 32.0589C63.7008 30.3007 54.0984 27.1901 50.582 26.6491C38.2746 24.3499 28.9426 34.4934 17.9877 36.2516C10.1434 37.604 6.08607 34.6286 0 33.5466Z" fill="#3C892D" fill-opacity="0.38"/>
<path fill-rule="evenodd" clip-rule="evenodd" d="M0.811982 23.809L0.270996 28.0016C16.23 33.5467 17.1767 32.3295 31.3776 25.5672C49.9062 16.641 55.0456 24.35 64.7833 25.5672C64.107 20.4279 64.2423 20.6984 60.0497 19.2107C57.3448 18.2639 55.3161 17.3172 52.2054 16.5057C38.9513 13.1246 31.648 22.1861 19.6112 25.2967C10.4144 27.5959 5.68083 23.1328 0.811982 23.809Z" fill="#3C892D" fill-opacity="0.38"/>
<path fill-rule="evenodd" clip-rule="evenodd" d="M2.02734 45.0433C2.70357 47.613 3.92079 50.1827 6.21997 51.2646C25.1544 59.6499 34.4864 36.6581 57.8839 44.7728C62.347 46.2605 64.1052 48.154 64.2405 42.4736C61.5355 40.1745 53.6913 37.8753 49.4986 37.4695C38.5437 36.2523 30.1585 44.7728 19.0683 47.072C10.8183 48.6949 7.43718 45.1786 2.02734 45.0433Z" fill="#3C892D" fill-opacity="0.38"/>
<path fill-rule="evenodd" clip-rule="evenodd" d="M53.4227 7.43897C52.0703 6.08645 49.7681 5.40866 47.1867 5.146C46.1345 5.03893 45.0098 5.14588 44.4783 5.146C43.9468 5.14612 40.1682 5.5518 37.1928 6.76902C31.3773 8.93295 24.4797 13.3961 18.6642 14.6133C13.5248 15.6952 10.0084 14.3428 5.68054 14.7485L3.65186 17.8592C6.89776 20.9698 14.0658 21.1051 17.9879 20.2936C22.3158 19.4821 26.6437 16.9125 30.0248 15.2895C45.0371 8.12148 46.5248 10.8264 58.4264 12.8551C55.4514 9.4676 54.7751 8.79143 53.4227 7.43897Z" fill="#3C892D" fill-opacity="0.38"/>
<path fill-rule="evenodd" clip-rule="evenodd" d="M11.7651 58.0264C13.6586 61.4075 18.5274 64.1125 22.9905 62.3543C31.511 58.9731 39.0848 53.428 48.2815 53.5633C54.2323 53.5633 58.8307 57.4854 60.1832 51.1289C51.1217 46.9362 44.7651 46.801 35.7037 51.1289C27.0479 55.3215 23.3963 58.0264 11.7651 58.0264Z" fill="#3C892D" fill-opacity="0.38"/>
<path fill-rule="evenodd" clip-rule="evenodd" d="M11.3594 9.0677C13.6586 10.5554 16.4987 9.74393 19.2036 8.93245L37.3266 0.817698C32.4577 -1.88722 13.6586 2.44065 11.3594 9.0677Z" fill="#3C892D" fill-opacity="0.38"/>
<path fill-rule="evenodd" clip-rule="evenodd" d="M48.824 63.1663C51.3939 62.2132 52.7464 61.537 54.3691 59.7851C47.742 55.9983 31.783 62.4901 28.8076 66.0064C32.7297 66.4122 36.1109 66.5474 39.6273 65.736C42.4675 65.195 48.5937 63.2517 48.824 63.1663Z" fill="#3C892D" fill-opacity="0.38"/>
</svg>
