<svg width="785" height="541" viewBox="0 0 785 541" fill="none" xmlns="http://www.w3.org/2000/svg">
<path fill-rule="evenodd" clip-rule="evenodd" d="M386.833 31.5714L383.53 40.3904C416.562 42.5952 420.967 53.6189 442.988 52.5165C526.669 34.8785 596.036 44.7999 653.291 87.7926C697.334 121.966 741.377 184.802 742.478 266.378C744.68 419.608 605.946 528.743 442.988 485.75C420.967 485.75 406.653 498.979 397.844 513.31C498.041 551.893 587.228 546.381 668.706 490.16C728.164 449.372 787.622 371.103 784.318 260.866C778.813 65.745 585.025 -55.5163 386.833 31.5714Z" fill="black" fill-opacity="0.05"/>
<path fill-rule="evenodd" clip-rule="evenodd" d="M0 273.285V308.47C29.7186 328.261 88.055 345.853 132.083 342.555C215.735 335.958 285.078 254.594 398.449 260.091C452.383 263.39 495.309 291.977 534.934 296.375L537.136 261.191C518.424 246.897 440.275 221.608 411.657 217.21C311.495 198.518 235.547 280.982 146.392 295.276C82.5516 306.271 49.531 282.082 0 273.285Z" fill="#3C892D" fill-opacity="0.05"/>
<path fill-rule="evenodd" clip-rule="evenodd" d="M5.38101 194.183L0.96582 228.409C131.213 273.677 138.94 263.74 254.838 208.536C406.058 135.666 448.002 198.599 527.475 208.536C521.956 166.58 523.06 168.788 488.842 156.643C466.766 148.915 450.209 141.186 424.822 134.561C316.65 106.959 257.046 180.933 158.808 206.328C83.7502 225.097 45.1175 188.662 5.38101 194.183Z" fill="#3C892D" fill-opacity="0.05"/>
<path fill-rule="evenodd" clip-rule="evenodd" d="M16.4229 365.961C21.9253 386.878 31.8296 407.795 50.5378 416.602C204.605 484.859 280.538 297.704 470.922 363.759C507.238 375.869 521.544 391.281 522.644 345.043C500.635 326.328 436.807 307.612 402.692 304.31C313.553 294.402 245.323 363.759 155.084 382.474C87.9542 395.685 60.4421 367.061 16.4229 365.961Z" fill="#3C892D" fill-opacity="0.05"/>
<path fill-rule="evenodd" clip-rule="evenodd" d="M443.347 53.8678C421.307 53.8678 416.898 43.9103 383.837 41.6975L387.143 32.8464C372.817 40.5911 326.531 45.0167 302.287 54.9741C254.899 72.6763 198.695 109.187 151.308 119.145C109.43 127.996 80.7772 116.932 45.512 120.251L28.9814 145.698C55.4303 171.145 113.838 172.251 145.797 165.613C181.063 158.974 216.328 137.953 243.879 124.676C366.205 66.038 378.327 88.1657 475.306 104.761C452.164 60.5061 433.429 74.8891 443.347 53.8678Z" fill="#3C892D" fill-opacity="0.05"/>
<path fill-rule="evenodd" clip-rule="evenodd" d="M95.6416 472.341C111.093 499.828 150.826 521.817 187.248 507.524C256.781 480.037 318.588 434.96 393.64 436.059C442.202 436.059 479.728 467.943 490.765 416.269C416.817 382.186 364.943 381.086 290.996 416.269C220.359 450.352 190.559 472.341 95.6416 472.341Z" fill="#3C892D" fill-opacity="0.05"/>
<path fill-rule="evenodd" clip-rule="evenodd" d="M92.7432 74.353C111.39 86.5518 134.425 79.8979 156.363 73.244L303.347 6.70493C263.859 -15.4748 111.39 20.0127 92.7432 74.353Z" fill="#3C892D" fill-opacity="0.05"/>
<path fill-rule="evenodd" clip-rule="evenodd" d="M397.95 514.786C406.823 500.214 421.243 486.762 443.427 486.762C389.076 455.375 258.191 509.181 233.789 538.326C265.956 541.689 293.685 542.81 322.525 536.084C345.818 531.6 376.875 514.786 397.95 514.786Z" fill="#3C892D" fill-opacity="0.05"/>
</svg>
