<svg viewBox="0 0 110 59" fill="none" xmlns="http://www.w3.org/2000/svg">
<path fill-rule="evenodd" clip-rule="evenodd" d="M51.1914 1.81111L51.002 2.31701C52.8968 2.44349 53.1495 3.07587 54.4128 3.01263C59.2131 2.00082 63.1924 2.56996 66.4769 5.03625C69.0034 6.99663 71.5299 10.6012 71.5931 15.2808C71.7194 24.0709 63.7609 30.3315 54.4128 27.8652C53.1495 27.8652 52.3284 28.6241 51.8231 29.4461C57.5709 31.6595 62.6871 31.3433 67.3612 28.1182C70.772 25.7783 74.1828 21.2884 73.9933 14.9646C73.6774 3.77149 62.5608 -3.1847 51.1914 1.81111Z" fill="black"/>
<path fill-rule="evenodd" clip-rule="evenodd" d="M29.001 15.6771V17.6954C30.7058 18.8308 34.0523 19.84 36.5779 19.6507C41.3767 19.2723 45.3546 14.6048 51.8581 14.9202C54.952 15.1094 57.4145 16.7493 59.6876 17.0016L59.8139 14.9833C58.7405 14.1633 54.2575 12.7126 52.6158 12.4603C46.8699 11.388 42.5132 16.1186 37.3988 16.9385C33.7366 17.5693 31.8423 16.1817 29.001 15.6771Z" fill="#3C892D"/>
<path fill-rule="evenodd" clip-rule="evenodd" d="M29.3099 11.1395L29.0566 13.1029C36.5283 15.6997 36.9716 15.1297 43.6201 11.9628C52.2948 7.78262 54.701 11.3928 59.26 11.9628C58.9434 9.55604 59.0067 9.68272 57.0438 8.98601C55.7774 8.54266 54.8276 8.0993 53.3713 7.71928C47.166 6.13586 43.7467 10.3794 38.1113 11.8362C33.8056 12.9129 31.5894 10.8228 29.3099 11.1395Z" fill="#3C892D"/>
<path fill-rule="evenodd" clip-rule="evenodd" d="M29.9434 20.9935C30.259 22.1934 30.8272 23.3933 31.9004 23.8986C40.7385 27.8141 45.0944 17.0779 56.0158 20.8672C58.0991 21.5619 58.9197 22.446 58.9829 19.7936C57.7203 18.7199 54.0588 17.6463 52.1018 17.4569C46.9883 16.8885 43.0743 20.8672 37.8977 21.9408C34.0468 22.6986 32.4685 21.0566 29.9434 20.9935Z" fill="#3C892D"/>
<path fill-rule="evenodd" clip-rule="evenodd" d="M54.4333 3.09017C53.1689 3.09017 52.916 2.51896 51.0195 2.39202L51.2091 1.88428C50.3873 2.32855 47.7321 2.58243 46.3413 3.15364C43.6229 4.16913 40.3988 6.26358 37.6804 6.83479C35.278 7.34253 33.6344 6.70785 31.6114 6.89826L30.6631 8.35802C32.1803 9.81779 35.5309 9.88126 37.3643 9.50045C39.3873 9.11964 41.4103 7.91375 42.9907 7.15213C50.008 3.78832 50.7034 5.05768 56.2666 6.0097C54.939 3.47098 53.8643 4.29606 54.4333 3.09017Z" fill="#3C892D"/>
<path fill-rule="evenodd" clip-rule="evenodd" d="M34.4873 27.0959C35.3737 28.6727 37.653 29.9341 39.7424 29.1142C43.7311 27.5374 47.2767 24.9515 51.582 25.0146C54.3678 25.0146 56.5205 26.8436 57.1536 23.8793C52.9116 21.9241 49.9359 21.861 45.6938 23.8793C41.6418 25.8345 39.9323 27.0959 34.4873 27.0959Z" fill="#3C892D"/>
<path fill-rule="evenodd" clip-rule="evenodd" d="M34.3203 4.26528C35.39 4.96507 36.7114 4.58336 37.9699 4.20166L46.4016 0.38463C44.1364 -0.887713 35.39 1.14804 34.3203 4.26528Z" fill="#3C892D"/>
<path fill-rule="evenodd" clip-rule="evenodd" d="M51.8292 29.5308C52.3383 28.6949 53.1654 27.9232 54.438 27.9232C51.3202 26.1227 43.812 29.2093 42.4121 30.8812C44.2574 31.0741 45.8481 31.1384 47.5024 30.7526C48.8387 30.4954 50.6203 29.5308 51.8292 29.5308Z" fill="#3C892D"/>
<path d="M96.501 38.0007V36.0007H110.001V38.0007H104.001V47.0007H102.001V38.0007H96.501Z" fill="black"/>
<path d="M81.501 37.0007C81.5018 40.5008 81.501 47.0007 81.501 47.0007H83.5V39.5007L92 46.0007C92 46.0007 93.501 47.0007 94 47.0007C94.5523 47.0007 94.9998 46.553 95 46.0007C95.001 43.0007 95 36.0007 95 36.0007H93V44.0007C93 44.0007 88.001 40.0007 85.001 37.5007C84.1263 36.7718 83.0735 36.0007 82.501 36.0007C81.9284 36.0007 81.5009 36.5641 81.501 37.0007Z" fill="black"/>
<path d="M45 36.9999C45.001 40.0007 45 46.9999 45 46.9999H47.5V39.9999L54.5 46.9999C54.7791 47.279 55.001 47.5007 55.6564 46.9999C58 44.4999 62.5 39.9999 62.5 39.9999V46.9999H65C65 46.9999 65.001 40.5007 65 36.9999C64.9998 36.4477 64.5523 35.9999 64 36C63.5 36.0001 62.6715 36.8323 62.501 37.0007C59.0018 40.4576 55 44.4999 55 44.4999L48.001 37.5007C48.001 37.5007 46.7318 35.9995 46.001 36.0007C45.501 36.0016 44.9998 36.4476 45 36.9999Z" fill="black"/>
<path d="M12.5002 38.0005V36.0005H2.00021C0.500213 36.0005 0.000918506 37.5007 0.000213427 38.0005C-0.000530329 38.5277 0.000903938 39.501 0.000963012 40.0007C0.00102209 40.5005 1.0239 41.5005 2.00021 41.5005H9.50021C10.2042 41.5005 10.9999 41.7967 11.001 42.5007C11.0017 43.001 11.0017 43.501 11.001 44.0007C11 44.6182 10.1177 45.0004 9.50021 45.0005C6.00098 45.0007 0.000213427 45.0005 0.000213427 45.0005V47.0005C0.000213427 47.0005 7.00098 47.0007 11.0002 47.0005C12.1048 47.0004 12.9997 46.1051 13.0002 45.0005C13.001 43.5007 13.0017 43.001 13.001 42.0007C13.0002 41.0244 11.9765 40.0004 11.0002 40.0005C8.00098 40.0007 5.50086 40.0007 3.00021 40.0005C2.44793 40.0004 2.00021 39.5528 2.00021 39.0005C2.00021 38.4482 2.44793 38.0004 3.00021 38.0005C6.00086 38.0007 12.5002 38.0005 12.5002 38.0005Z" fill="black"/>
<path d="M14.001 47.0007V36.0007H27.501V38.0007H16.001V39.5007H25.501V41.5007H16.001V45.0007H27.501V47.0007H14.001Z" fill="black"/>
<path d="M67.001 47.0007V36.0007H80.501V38.0007H69.001V39.5007H78.501V41.5007H69.001V45.0007H80.501V47.0007H67.001Z" fill="black"/>
<path d="M43.0102 38.0005V36.0005C43.0102 36.0005 36.5079 36.0007 33.0102 36.0005C31.436 36.0004 29.5027 37.4265 29.5018 39.0007C29.5006 41.0008 29.4989 42.0008 29.5011 44.0007C29.5028 45.575 31.436 47.0004 33.0102 47.0005C36.5079 47.0006 43.0102 47.0005 43.0102 47.0005C43.0102 47.0005 43.0099 42.5006 43.0102 40.5005C43.0103 39.9482 42.5625 39.5005 42.0102 39.5005C38.5099 39.5006 34.0102 39.5005 34.0102 39.5005V41.5005H41.0102V45.0005L34.0011 45.0007C32.5011 45.0007 32.0011 44.5007 32.0011 43.5007V39.5007C32.0011 38.5007 32.5011 38.0007 34.0102 38.0005C37.5099 37.9999 43.0102 38.0005 43.0102 38.0005Z" fill="black"/>
<path d="M42.6058 52.5242V53.5726C42.6058 53.5726 39.6699 53.5726 37.9603 53.5726C37.6295 53.5726 37.4701 53.6916 37.3113 53.8346C37.1475 53.9822 37.0493 54.1974 37.0493 54.4635C37.0493 55.209 37.0493 55.6691 37.0493 56.4553C37.0493 56.7921 37.2303 56.8984 37.3113 56.9795C37.5734 57.2415 37.9603 57.2415 37.9603 57.2415H41.7672V55.4593H37.9603V54.4635H42.8155V58.2897C42.8155 58.2897 39.6699 58.2897 37.5734 58.2897C37.0493 58.2897 36.6297 57.8672 36.5251 57.7655C36.4205 57.6639 36.001 57.3638 36.001 56.7174C36.001 55.7217 36.001 55.145 36.001 54.0967C36.001 53.7575 36.2 53.3705 36.5251 53.0484C36.9725 52.6053 37.363 52.5243 37.5734 52.5243C39.4596 52.5243 42.6058 52.5242 42.6058 52.5242Z" fill="#428A35"/>
<path d="M43.8633 58.2897V52.5242H49.1047C49.4384 52.5242 50.415 52.7862 50.415 53.5724V55.4069C50.415 56.1931 49.4286 56.4552 49.1047 56.4552H47.5322L50.6771 58.2897H48.8426L45.6978 56.4552H44.9116V58.2897H43.8633Z" fill="#428A35"/>
<path d="M67.4492 58.2897V52.5242H72.6906C73.0244 52.5242 74.0009 52.7862 74.0009 53.5724V55.4069C74.0009 56.1931 73.0145 56.4552 72.6906 56.4552H71.1182H69.2837H68.4975V58.2897H67.4492Z" fill="#428A35"/>
<path d="M44.9121 53.5725H48.45C48.9566 53.5725 49.3673 53.9832 49.3673 54.4898V54.4898C49.3673 54.9963 48.9566 55.407 48.45 55.407H44.9121V53.5725Z" fill="white"/>
<path d="M68.498 53.5725H72.036C72.5426 53.5725 72.9532 53.9832 72.9532 54.4898V54.4898C72.9532 54.9963 72.5426 55.407 72.036 55.407H68.498V53.5725Z" fill="#E5E5E5"/>
<path d="M51.7256 54.5242C51.7256 53.4196 52.621 52.5242 53.7256 52.5242H56.5394C57.6439 52.5242 58.5394 53.4196 58.5394 54.5242V56.2897C58.5394 57.3943 57.6439 58.2897 56.5394 58.2897H53.7256C52.621 58.2897 51.7256 57.3943 51.7256 56.2897V54.5242Z" fill="#428A35"/>
<path d="M59.5869 52.5242H66.4007V57.2897C66.4007 57.842 65.953 58.2897 65.4007 58.2897H60.5869C60.0346 58.2897 59.5869 57.842 59.5869 57.2897V52.5242Z" fill="#428A35"/>
<path d="M52.7734 54.5725C52.7734 54.0202 53.2212 53.5725 53.7734 53.5725H56.4907C57.043 53.5725 57.4907 54.0202 57.4907 54.5725V56.2415C57.4907 56.7938 57.043 57.2415 56.4907 57.2415H53.7734C53.2212 57.2415 52.7734 56.7938 52.7734 56.2415V54.5725Z" fill="white"/>
<path d="M60.6348 52.5C60.6348 52.2239 60.8586 52 61.1348 52H64.852C65.1281 52 65.352 52.2239 65.352 52.5V56.7414C65.352 57.0175 65.1281 57.2414 64.852 57.2414H61.1348C60.8586 57.2414 60.6348 57.0175 60.6348 56.7414V52.5Z" fill="white"/>
</svg>
