<svg width="473" height="473" viewBox="0 0 473 473" xmlns="http://www.w3.org/2000/svg">
<path d="M27.398 238.665C26.3644 237.631 25.0475 236.927 23.6138 236.642C22.1801 236.357 20.6941 236.503 19.3436 237.063C17.9931 237.622 16.8388 238.569 16.0267 239.785C15.2146 241 14.7812 242.429 14.7813 243.891V450.828C14.7813 452.789 15.5599 454.668 16.9459 456.054C18.3319 457.44 20.2118 458.219 22.1719 458.219H229.109C230.571 458.219 232 457.786 233.215 456.974C234.431 456.162 235.378 455.007 235.938 453.657C236.497 452.306 236.643 450.82 236.358 449.387C236.073 447.953 235.369 446.636 234.335 445.602L27.398 238.665ZM29.5625 443.438V261.733L211.267 443.438H29.5625Z"/>
<path d="M66.5156 413.875H125.641C127.102 413.875 128.531 413.442 129.747 412.63C130.962 411.818 131.91 410.663 132.469 409.313C133.028 407.962 133.175 406.476 132.889 405.043C132.604 403.609 131.9 402.292 130.867 401.259L71.7417 342.134C70.7081 341.1 69.3912 340.396 67.9575 340.111C66.5239 339.826 65.0378 339.972 63.6873 340.531C62.3368 341.091 61.1825 342.038 60.3705 343.254C59.5584 344.469 59.1249 345.898 59.125 347.36V406.485C59.125 408.445 59.9037 410.325 61.2897 411.711C62.6757 413.097 64.5555 413.875 66.5156 413.875ZM73.9062 365.202L107.799 399.094H73.9062V365.202Z"/>
<path d="M96.0781 44.3438H110.859V59.125H96.0781V44.3438Z"/>
<path d="M125.641 44.3438H140.422V59.125H125.641V44.3438Z"/>
<path d="M155.203 44.3438H169.984V59.125H155.203V44.3438Z"/>
<path d="M166.987 148.459C165.673 149.027 164.556 149.97 163.774 151.169C162.993 152.369 162.582 153.772 162.594 155.203V236.5C162.594 237.93 163.008 239.329 163.787 240.528C164.566 241.726 165.676 242.673 166.983 243.254L233.499 272.817C234.444 273.238 235.467 273.455 236.502 273.454C237.536 273.453 238.559 273.234 239.503 272.811V272.817L306.019 243.254C307.325 242.673 308.435 241.726 309.214 240.527C309.992 239.328 310.407 237.929 310.406 236.5V155.203C310.418 153.772 310.007 152.369 309.226 151.169C308.444 149.97 307.327 149.027 306.013 148.459V148.449L239.497 118.887C238.552 118.467 237.529 118.25 236.494 118.25C235.46 118.25 234.437 118.467 233.492 118.887L166.976 148.449L166.987 148.459ZM229.109 254.69L177.375 231.696V166.575L229.109 189.57V254.69ZM295.625 231.696L243.891 254.69V189.57L295.625 166.576V231.696ZM236.5 133.728L284.816 155.203L236.5 176.678L188.184 155.203L236.5 133.728Z"/>
<path d="M229.109 295.625H243.891V332.578H229.109V295.625Z"/>
<path d="M229.109 66.5156H243.891V103.469H229.109V66.5156Z"/>
<path d="M107.632 139.746L114.002 126.413L144.938 141.195L138.568 154.528L107.632 139.746Z"/>
<path d="M327.891 141.088L358.827 126.306L365.198 139.639L334.262 154.421L327.891 141.088Z"/>
<path d="M107.63 259.312L138.566 244.53L144.936 257.863L114 272.645L107.63 259.312Z"/>
<path d="M450.828 354.75H406.484V239.562L449.932 196.114C452.559 193.487 454.643 190.367 456.065 186.935C457.487 183.502 458.219 179.822 458.219 176.107C458.219 172.391 457.487 168.712 456.065 165.279C454.643 161.846 452.559 158.727 449.932 156.1C447.304 153.472 444.185 151.388 440.752 149.966C437.319 148.544 433.64 147.813 429.924 147.813C426.209 147.813 422.529 148.545 419.097 149.967C415.664 151.389 412.545 153.473 409.917 156.1L406.484 159.533V96.0781C406.484 95.1076 406.293 94.1465 405.922 93.2498C405.551 92.3531 405.006 91.5383 404.32 90.852L330.414 16.9458C329.727 16.2595 328.913 15.7151 328.016 15.3437C327.119 14.9723 326.158 14.7812 325.188 14.7813H96.0781C88.2404 14.7901 80.7261 17.9075 75.184 23.4496C69.6419 28.9918 66.5244 36.506 66.5156 44.3438V258.672H81.2969V44.3438C81.3015 40.4249 82.8603 36.668 85.6313 33.897C88.4024 31.1259 92.1593 29.5671 96.0781 29.5625H317.797V73.9062C317.806 81.744 320.923 89.2582 326.465 94.8004C332.007 100.343 339.522 103.46 347.359 103.469H391.703V174.313L275.618 290.399C274.586 291.431 273.883 292.745 273.596 294.176L266.206 331.129C265.967 332.322 266.027 333.555 266.379 334.72C266.732 335.885 267.366 336.944 268.227 337.805C269.087 338.665 270.147 339.3 271.311 339.652C272.476 340.005 273.709 340.064 274.903 339.826L311.856 332.435C313.287 332.149 314.601 331.445 315.632 330.414L391.703 254.343V354.75H243.891C241.931 354.75 240.051 355.529 238.665 356.915C237.279 358.301 236.5 360.181 236.5 362.141V384.312H199.547V399.094H236.5V421.266C236.5 423.226 237.279 425.106 238.665 426.492C240.051 427.878 241.931 428.656 243.891 428.656H450.828C452.788 428.656 454.668 427.878 456.054 426.492C457.44 425.106 458.219 423.226 458.219 421.266V362.141C458.219 360.181 457.44 358.301 456.054 356.915C454.668 355.529 452.788 354.75 450.828 354.75ZM332.578 73.9062V40.0147L381.251 88.6875H347.359C343.441 88.6829 339.684 87.1241 336.913 84.353C334.142 81.582 332.583 77.8251 332.578 73.9062ZM291.296 295.625L406.484 180.437L425.595 199.547L310.406 314.735L291.296 295.625ZM429.925 162.594C432.597 162.594 435.21 163.387 437.432 164.872C439.654 166.356 441.386 168.467 442.409 170.936C443.432 173.405 443.699 176.122 443.178 178.744C442.656 181.365 441.37 183.773 439.48 185.663L436.047 189.095L416.937 169.984L420.37 166.551C421.621 165.293 423.11 164.295 424.751 163.615C426.391 162.936 428.149 162.589 429.925 162.594ZM285.383 310.616L295.415 320.649L282.876 323.155L285.383 310.616ZM443.438 413.875H251.281V369.531H266.062V384.312H280.844V369.531H295.625V384.312H310.406V369.531H325.188V384.312H339.969V369.531H354.75V384.312H369.531V369.531H384.312V384.312H399.094V369.531H413.875V384.312H428.656V369.531H443.438V413.875Z"/>
</svg>
