<svg width="463" height="463" viewBox="0 0 463 463" xmlns="http://www.w3.org/2000/svg">
<path d="M247.011 264.359L261.212 240.442L222.558 201.788L198.641 215.99C192.362 212.676 185.743 209.942 178.892 207.829L172.012 180.859H117.356L110.483 207.836C103.632 209.949 97.013 212.683 90.7335 215.997L66.8167 201.796L28.1634 240.449L42.3645 264.366C39.0512 270.645 36.3166 277.265 34.2041 284.116L7.23438 290.988V345.644L34.2114 352.517C36.3238 359.368 39.0584 365.987 42.3717 372.266L28.1707 396.183L66.8239 434.837L90.7408 420.636C97.0202 423.949 103.64 426.683 110.491 428.796L117.363 455.766H172.019L178.892 428.789C185.743 426.676 192.362 423.942 198.641 420.628L222.558 434.829L261.212 396.176L247.011 372.259C250.324 365.98 253.058 359.36 255.171 352.509L282.141 345.637V290.981L255.164 284.108C253.051 277.257 250.324 270.638 247.011 264.359ZM267.672 334.395L243.48 340.565L242.381 344.646C240.094 353.16 236.738 361.285 232.404 368.787L230.292 372.455L243.024 393.912L220.279 416.657L198.822 403.924L195.154 406.037C187.652 410.37 179.528 413.719 171.013 416.013L166.933 417.112L160.77 441.297H128.613L122.442 417.105L118.362 416.006C109.847 413.719 101.723 410.363 94.2205 406.029L90.5527 403.917L69.0955 416.649L46.3506 393.904L59.0831 372.447L56.9707 368.78C52.6373 361.277 49.2878 353.153 46.9945 344.638L45.8949 340.558L21.7031 334.395V302.238L45.8949 296.067L46.9945 291.987C49.2806 283.472 52.6373 275.348 56.9707 267.845L59.0831 264.178L46.3506 242.721L69.0955 219.976L90.5527 232.708L94.2205 230.596C101.723 226.262 109.847 222.913 118.362 220.62L122.442 219.52L128.605 195.328H160.762L166.933 219.52L171.013 220.62C179.528 222.906 187.652 226.262 195.154 230.596L198.822 232.708L220.279 219.976L243.024 242.721L230.292 264.178L232.404 267.845C236.738 275.348 240.087 283.472 242.381 291.987L243.48 296.067L267.672 302.23V334.395Z"/>
<path d="M144.688 231.5C96.8176 231.5 57.875 270.443 57.875 318.312C57.875 366.182 96.8176 405.125 144.688 405.125C192.557 405.125 231.5 366.182 231.5 318.312C231.5 270.443 192.557 231.5 144.688 231.5ZM144.688 390.656C104.797 390.656 72.3438 358.203 72.3438 318.312C72.3438 278.422 104.797 245.969 144.688 245.969C184.578 245.969 217.031 278.422 217.031 318.312C217.031 358.203 184.578 390.656 144.688 390.656Z"/>
<path d="M144.688 274.906C120.749 274.906 101.281 294.374 101.281 318.312C101.281 342.251 120.749 361.719 144.688 361.719C168.626 361.719 188.094 342.251 188.094 318.312C188.094 294.374 168.626 274.906 144.688 274.906ZM144.688 347.25C128.728 347.25 115.75 334.272 115.75 318.312C115.75 302.353 128.728 289.375 144.688 289.375C160.647 289.375 173.625 302.353 173.625 318.312C173.625 334.272 160.647 347.25 144.688 347.25Z"/>
<path d="M434.062 65.1094H260.438C248.472 65.1094 238.734 74.8468 238.734 86.8125V188.094C238.734 200.059 248.472 209.797 260.438 209.797H274.906V243.205L341.723 209.797H434.062C446.028 209.797 455.766 200.059 455.766 188.094V86.8125C455.766 74.8468 446.028 65.1094 434.062 65.1094ZM441.297 188.094C441.297 192.087 438.056 195.328 434.062 195.328H338.308L289.375 219.795V195.328H260.438C256.444 195.328 253.203 192.087 253.203 188.094V86.8125C253.203 82.8191 256.444 79.5781 260.438 79.5781H434.062C438.056 79.5781 441.297 82.8191 441.297 86.8125V188.094Z"/>
<path d="M28.9375 137.453H99.2773L144.688 164.705V137.453H202.562C214.528 137.453 224.266 127.716 224.266 115.75V28.9375C224.266 16.9718 214.528 7.23438 202.562 7.23438H28.9375C16.9718 7.23438 7.23438 16.9718 7.23438 28.9375V115.75C7.23438 127.716 16.9718 137.453 28.9375 137.453ZM21.7031 28.9375C21.7031 24.9441 24.9441 21.7031 28.9375 21.7031H202.562C206.556 21.7031 209.797 24.9441 209.797 28.9375V115.75C209.797 119.743 206.556 122.984 202.562 122.984H130.219V139.139L103.285 122.984H28.9375C24.9441 122.984 21.7031 119.743 21.7031 115.75V28.9375Z"/>
<path d="M412.359 166.391H397.891V108.516H383.422V166.391H368.953V94.0469H354.484V166.391H340.016V122.984H325.547V166.391H311.078V137.453H296.609V166.391H282.141V180.859H426.828V94.0469H412.359V166.391Z"/>
<path d="M57.875 94.0469C69.8407 94.0469 79.5781 84.3094 79.5781 72.3438C79.5781 60.3781 69.8407 50.6406 57.875 50.6406C45.9093 50.6406 36.1719 60.3781 36.1719 72.3438C36.1719 84.3094 45.9093 94.0469 57.875 94.0469ZM57.875 65.1094C61.8684 65.1094 65.1094 68.3504 65.1094 72.3438C65.1094 76.3371 61.8684 79.5781 57.875 79.5781C53.8816 79.5781 50.6406 76.3371 50.6406 72.3438C50.6406 68.3504 53.8816 65.1094 57.875 65.1094Z"/>
<path d="M115.75 94.0469C127.716 94.0469 137.453 84.3094 137.453 72.3438C137.453 60.3781 127.716 50.6406 115.75 50.6406C103.784 50.6406 94.0469 60.3781 94.0469 72.3438C94.0469 84.3094 103.784 94.0469 115.75 94.0469ZM115.75 65.1094C119.743 65.1094 122.984 68.3504 122.984 72.3438C122.984 76.3371 119.743 79.5781 115.75 79.5781C111.757 79.5781 108.516 76.3371 108.516 72.3438C108.516 68.3504 111.757 65.1094 115.75 65.1094Z"/>
<path d="M173.625 94.0469C185.591 94.0469 195.328 84.3094 195.328 72.3438C195.328 60.3781 185.591 50.6406 173.625 50.6406C161.659 50.6406 151.922 60.3781 151.922 72.3438C151.922 84.3094 161.659 94.0469 173.625 94.0469ZM173.625 65.1094C177.618 65.1094 180.859 68.3504 180.859 72.3438C180.859 76.3371 177.618 79.5781 173.625 79.5781C169.632 79.5781 166.391 76.3371 166.391 72.3438C166.391 68.3504 169.632 65.1094 173.625 65.1094Z"/>
<path d="M376.189 296.609C362.038 296.609 348.185 300.4 335.944 307.606L292.321 302.426L306.992 337.006C300.185 348.986 296.611 362.449 296.611 376.188C296.611 420.064 332.312 455.766 376.189 455.766C420.065 455.766 455.767 420.064 455.767 376.188C455.767 332.311 420.065 296.609 376.189 296.609ZM335.351 426.828H417.02C405.843 435.857 391.642 441.297 376.182 441.297C360.722 441.297 346.535 435.857 335.351 426.828ZM366.567 379.653C363.442 376.839 361.72 373.033 361.72 368.953V355.714C361.72 347.46 367.862 340.435 375.4 340.037C379.365 339.806 383.242 341.224 386.151 343.995C389.052 346.758 390.658 350.477 390.658 354.484V368.953C390.658 373.033 388.936 376.839 385.811 379.653L383.423 381.809V395.127L403.419 405.125C406.638 406.731 409.141 409.285 410.675 412.359H341.71C343.244 409.285 345.754 406.731 348.966 405.125L368.955 395.127V381.809L366.567 379.653ZM426.663 417.243C425.853 406.521 419.624 397.051 409.887 392.183L398.941 386.714C402.913 381.649 405.126 375.392 405.126 368.953V354.484C405.126 346.584 401.842 338.938 396.112 333.497C390.296 327.985 382.772 325.294 374.641 325.583C359.282 326.386 347.251 339.625 347.251 355.714V368.953C347.251 375.392 349.465 381.649 353.43 386.714L342.484 392.183C332.746 397.051 326.518 406.521 325.707 417.243C316.578 406.029 311.08 391.741 311.08 376.188C311.08 363.918 314.574 351.902 321.193 341.441L323.219 338.236L315.369 319.73L339.265 322.574L341.442 321.199C351.903 314.572 363.919 311.078 376.189 311.078C412.093 311.078 441.298 340.283 441.298 376.188C441.298 391.741 435.8 406.029 426.663 417.243Z"/>
</svg>
