<svg viewBox="0 0 66 74" fill="none" xmlns="http://www.w3.org/2000/svg">
<path d="M64.5652 17.218H37.3043V1.43478C37.3043 0.642496 36.662 0 35.8696 0H1.43478C0.642352 0 0 0.642496 0 1.43478V72.0259C0 72.8182 0.642352 73.4607 1.43478 73.4607H35.8696H64.5652C65.3577 73.4607 66 72.8182 66 72.0259V18.6527C66 17.8603 65.3575 17.218 64.5652 17.218ZM37.3043 20.0875H63.1304V56.2433H37.3043V20.0875ZM14.3478 70.5912V59.1129H22.9565V70.5912H14.3478ZM24.3913 56.2433H12.913C12.1206 56.2433 11.4783 56.8858 11.4783 57.6781V70.5912H2.86957V2.86957H34.4348V70.5912H25.8261V57.6781C25.8261 56.8858 25.1836 56.2433 24.3913 56.2433ZM37.3042 70.5912V59.1129H63.1303V70.5912H37.3042Z" fill="#428A35" fill-opacity="0.8"/>
<path d="M17.2173 11.4784H20.0864C20.8788 11.4784 21.5212 10.836 21.5212 10.0436V7.17404C21.5212 6.38161 20.8788 5.73926 20.0864 5.73926H17.2173C16.4248 5.73926 15.7825 6.38161 15.7825 7.17404V10.0436C15.7825 10.836 16.4248 11.4784 17.2173 11.4784Z" fill="#428A35" fill-opacity="0.8"/>
<path d="M17.2173 21.5218H20.0864C20.8788 21.5218 21.5212 20.8795 21.5212 20.0871V17.2175C21.5212 16.4251 20.8788 15.7827 20.0864 15.7827H17.2173C16.4248 15.7827 15.7825 16.4251 15.7825 17.2175V20.0871C15.7825 20.8795 16.4248 21.5218 17.2173 21.5218Z" fill="#428A35" fill-opacity="0.8"/>
<path d="M17.2173 31.5653H20.0864C20.8788 31.5653 21.5212 30.923 21.5212 30.1305V27.261C21.5212 26.4685 20.8788 25.8262 20.0864 25.8262H17.2173C16.4248 25.8262 15.7825 26.4685 15.7825 27.261V30.1305C15.7825 30.923 16.4248 31.5653 17.2173 31.5653Z" fill="#428A35" fill-opacity="0.8"/>
<path d="M17.2173 41.6088H20.0864C20.8788 41.6088 21.5212 40.9664 21.5212 40.174V37.3044C21.5212 36.512 20.8788 35.8696 20.0864 35.8696H17.2173C16.4248 35.8696 15.7825 36.512 15.7825 37.3044V40.174C15.7825 40.9664 16.4248 41.6088 17.2173 41.6088Z" fill="#428A35" fill-opacity="0.8"/>
<path d="M17.2173 51.6522H20.0864C20.8788 51.6522 21.5212 51.0099 21.5212 50.2174V47.3479C21.5212 46.5554 20.8788 45.9131 20.0864 45.9131H17.2173C16.4248 45.9131 15.7825 46.5554 15.7825 47.3479V50.2174C15.7825 51.0099 16.4248 51.6522 17.2173 51.6522Z" fill="#428A35" fill-opacity="0.8"/>
<path d="M7.17404 11.4784H10.0432C10.8356 11.4784 11.478 10.836 11.478 10.0436V7.17404C11.478 6.38161 10.8356 5.73926 10.0432 5.73926H7.17404C6.38161 5.73926 5.73926 6.38161 5.73926 7.17404V10.0436C5.73926 10.836 6.38161 11.4784 7.17404 11.4784Z" fill="#428A35" fill-opacity="0.8"/>
<path d="M7.17404 21.5218H10.0432C10.8356 21.5218 11.478 20.8795 11.478 20.0871V17.2175C11.478 16.4251 10.8356 15.7827 10.0432 15.7827H7.17404C6.38161 15.7827 5.73926 16.4251 5.73926 17.2175V20.0871C5.73926 20.8795 6.38161 21.5218 7.17404 21.5218Z" fill="#428A35" fill-opacity="0.8"/>
<path d="M7.17404 31.5653H10.0432C10.8356 31.5653 11.478 30.923 11.478 30.1305V27.261C11.478 26.4685 10.8356 25.8262 10.0432 25.8262H7.17404C6.38161 25.8262 5.73926 26.4685 5.73926 27.261V30.1305C5.73926 30.923 6.38161 31.5653 7.17404 31.5653Z" fill="#428A35" fill-opacity="0.8"/>
<path d="M7.17404 41.6088H10.0432C10.8356 41.6088 11.478 40.9664 11.478 40.174V37.3044C11.478 36.512 10.8356 35.8696 10.0432 35.8696H7.17404C6.38161 35.8696 5.73926 36.512 5.73926 37.3044V40.174C5.73926 40.9664 6.38161 41.6088 7.17404 41.6088Z" fill="#428A35" fill-opacity="0.8"/>
<path d="M7.17404 51.6522H10.0432C10.8356 51.6522 11.478 51.0099 11.478 50.2174V47.3479C11.478 46.5554 10.8356 45.9131 10.0432 45.9131H7.17404C6.38161 45.9131 5.73926 46.5554 5.73926 47.3479V50.2174C5.73926 51.0099 6.38161 51.6522 7.17404 51.6522Z" fill="#428A35" fill-opacity="0.8"/>
<path d="M30.1303 5.73926H27.2612C26.4688 5.73926 25.8264 6.38161 25.8264 7.17404V10.0436C25.8264 10.836 26.4688 11.4784 27.2612 11.4784H30.1303C30.9228 11.4784 31.5651 10.836 31.5651 10.0436V7.17404C31.5651 6.38161 30.9228 5.73926 30.1303 5.73926Z" fill="#428A35" fill-opacity="0.8"/>
<path d="M30.1303 15.7825H27.2612C26.4688 15.7825 25.8264 16.4248 25.8264 17.2173V20.0868C25.8264 20.8792 26.4688 21.5216 27.2612 21.5216H30.1303C30.9228 21.5216 31.5651 20.8792 31.5651 20.0868V17.2173C31.5651 16.425 30.9228 15.7825 30.1303 15.7825Z" fill="#428A35" fill-opacity="0.8"/>
<path d="M30.1303 25.8259H27.2612C26.4688 25.8259 25.8264 26.4683 25.8264 27.2607V30.1303C25.8264 30.9227 26.4688 31.5651 27.2612 31.5651H30.1303C30.9228 31.5651 31.5651 30.9227 31.5651 30.1303V27.2607C31.5651 26.4684 30.9228 25.8259 30.1303 25.8259Z" fill="#428A35" fill-opacity="0.8"/>
<path d="M30.1303 35.8696H27.2612C26.4688 35.8696 25.8264 36.512 25.8264 37.3044V40.174C25.8264 40.9664 26.4688 41.6088 27.2612 41.6088H30.1303C30.9228 41.6088 31.5651 40.9664 31.5651 40.174V37.3044C31.5651 36.5121 30.9228 35.8696 30.1303 35.8696Z" fill="#428A35" fill-opacity="0.8"/>
<path d="M30.1303 45.9131H27.2612C26.4688 45.9131 25.8264 46.5554 25.8264 47.3479V50.2174C25.8264 51.0099 26.4688 51.6522 27.2612 51.6522H30.1303C30.9228 51.6522 31.5651 51.0099 31.5651 50.2174V47.3479C31.5651 46.5554 30.9228 45.9131 30.1303 45.9131Z" fill="#428A35" fill-opacity="0.8"/>
<path d="M56.6733 25.8259H53.8042C53.0117 25.8259 52.3694 26.4683 52.3694 27.2607V30.1303C52.3694 30.9227 53.0117 31.5651 53.8042 31.5651H56.6733C57.4657 31.5651 58.1081 30.9227 58.1081 30.1303V27.2607C58.1081 26.4684 57.4656 25.8259 56.6733 25.8259Z" fill="#428A35" fill-opacity="0.8"/>
<path d="M56.6733 35.8696H53.8042C53.0117 35.8696 52.3694 36.512 52.3694 37.3044V40.174C52.3694 40.9664 53.0117 41.6088 53.8042 41.6088H56.6733C57.4657 41.6088 58.1081 40.9664 58.1081 40.174V37.3044C58.1081 36.5121 57.4656 35.8696 56.6733 35.8696Z" fill="#428A35" fill-opacity="0.8"/>
<path d="M56.6733 45.9131H53.8042C53.0117 45.9131 52.3694 46.5554 52.3694 47.3479V50.2174C52.3694 51.0099 53.0117 51.6522 53.8042 51.6522H56.6733C57.4657 51.6522 58.1081 51.0099 58.1081 50.2174V47.3479C58.1081 46.5554 57.4656 45.9131 56.6733 45.9131Z" fill="#428A35" fill-opacity="0.8"/>
<path d="M46.6303 25.8259H43.7612C42.9688 25.8259 42.3264 26.4683 42.3264 27.2607V30.1303C42.3264 30.9227 42.9688 31.5651 43.7612 31.5651H46.6303C47.4228 31.5651 48.0651 30.9227 48.0651 30.1303V27.2607C48.0651 26.4684 47.4226 25.8259 46.6303 25.8259Z" fill="#428A35" fill-opacity="0.8"/>
<path d="M46.6303 35.8696H43.7612C42.9688 35.8696 42.3264 36.512 42.3264 37.3044V40.174C42.3264 40.9664 42.9688 41.6088 43.7612 41.6088H46.6303C47.4228 41.6088 48.0651 40.9664 48.0651 40.174V37.3044C48.0651 36.5121 47.4226 35.8696 46.6303 35.8696Z" fill="#428A35" fill-opacity="0.8"/>
<path d="M46.6303 45.9131H43.7612C42.9688 45.9131 42.3264 46.5554 42.3264 47.3479V50.2174C42.3264 51.0099 42.9688 51.6522 43.7612 51.6522H46.6303C47.4228 51.6522 48.0651 51.0099 48.0651 50.2174V47.3479C48.0651 46.5554 47.4226 45.9131 46.6303 45.9131Z" fill="#428A35" fill-opacity="0.8"/>
</svg>
