<svg viewBox="0 0 76 76" fill="none" xmlns="http://www.w3.org/2000/svg">
<path d="M73.625 70.6871C73.625 69.8048 73.1179 69.0567 72.4054 68.6399C72.6571 68.2207 72.7916 67.7417 72.7949 67.2529C72.7968 66.5352 72.5137 65.8462 72.0078 65.3371C71.5019 64.8281 70.8146 64.5408 70.0969 64.5382C70.0411 64.5382 69.9818 64.5549 69.9248 64.562V64.2259C69.9248 63.46 69.3049 62.8366 68.5425 62.8366C68.3489 62.8366 68.1708 62.8876 68.0046 62.9624V61.9804H70.1207V55.6296H68.5876V50.3381H70.1207V43.9862H68.5876V38.6935H70.1207V32.3416H68.5876V27.0489H70.1207V20.6981H68.5876V15.4054H70.1207V5.87931H56.1046V2.375H18.7281V6.93738H15.0777V5.87931H4.49231V58.805H2.375V61.9804H4.49231V73.625H73.625V72.4577H72.8448C73.3198 72.0171 73.625 71.3889 73.625 70.6871ZM46.8326 15.4066H52.1253V20.6993H46.8326V15.4066ZM46.8326 27.0489H52.1253V32.3416H46.8326V27.0489ZM46.8326 38.6935H52.1253V43.9862H46.8326V38.6935ZM46.8326 50.3381H52.1253V55.6308H46.8326V50.3381ZM36.2472 15.4066H41.5399V20.6993H36.2472V15.4066ZM36.2472 27.0489H41.5399V32.3416H36.2472V27.0489ZM36.2472 38.6935H41.5399V43.9862H36.2472V38.6935ZM36.2472 50.3381H41.5399V55.6308H36.2472V50.3381ZM19.5653 72.4577H16.3899V64.0989H19.5653V72.4577ZM23.7987 72.4577H20.6233V64.0989H23.7987V72.4577ZM30.9546 72.4577H24.8567V63.0396H15.3306V72.4577H6.60844V61.9816H30.9546V72.4577ZM30.9546 50.3381V58.8062H15.0765V48.7504H30.9546V50.3381ZM30.9546 38.6935V45.5739H15.0765V37.1058H30.9546V38.6935ZM30.9546 27.0489V33.9293H15.0765V25.4612H30.9546V27.0489ZM30.9546 15.4066V22.287H15.0765V13.8189H30.9546V15.4066ZM30.9546 10.6424H15.0765V7.99544H30.9546V10.6424ZM36.2472 72.4577H32.7441V71.2904H36.2472V61.9816H41.5399V71.2904H46.8326V61.9816H52.1253V71.2904H56.9703C57.2102 71.8544 57.6935 72.2796 58.2873 72.4577H36.2472ZM57.4192 65.6248V61.9816H62.7119V63.6049C62.5836 63.5788 62.4613 63.536 62.3236 63.536C61.9311 63.5376 61.5473 63.6509 61.2169 63.8627C60.8866 64.0744 60.6233 64.3759 60.458 64.7318C60.1713 64.6312 59.8701 64.5778 59.5662 64.5739C58.6934 64.5739 57.9239 64.9895 57.4192 65.6248ZM59.0176 70.4781C58.6364 70.4781 58.3312 70.8617 58.3312 70.4781C58.3312 70.2951 58.4039 70.1197 58.5333 69.9903C58.6627 69.8609 58.8381 69.7882 59.0211 69.7882C59.2041 69.7882 59.3796 69.8609 59.509 69.9903C59.6384 70.1197 59.7111 70.2951 59.7111 70.4781C59.7111 70.8617 59.4047 70.4781 59.0176 70.4781ZM59.7586 66.7399C58.9938 66.7399 58.3739 67.9559 58.3739 67.1804C58.3739 66.8126 58.5201 66.4598 58.7802 66.1997C59.0403 65.9396 59.3931 65.7934 59.7609 65.7934C60.1288 65.7934 60.4816 65.9396 60.7417 66.1997C61.0018 66.4598 61.1479 66.8126 61.1479 67.1804C61.1479 67.9571 60.5328 66.7399 59.7586 66.7399ZM62.7677 70.4734C62.0053 70.4734 61.3854 71.5409 61.3854 70.7714C61.3861 70.4046 61.5317 70.0529 61.7907 69.793C62.0496 69.5332 62.4008 69.3863 62.7677 69.3844C62.9492 69.3848 63.1288 69.4209 63.2963 69.4909C63.4638 69.5608 63.6158 69.6632 63.7436 69.7921C63.8713 69.921 63.9724 70.0739 64.0409 70.2419C64.1094 70.41 64.1441 70.5899 64.1428 70.7714C64.144 71.5409 63.5372 70.4734 62.7677 70.4734ZM64.5062 64.9242C64.5062 64.6765 64.6046 64.4389 64.7797 64.2638C64.9549 64.0886 65.1925 63.9902 65.4402 63.9902C65.6879 63.9902 65.9254 64.0886 66.1006 64.2638C66.2757 64.4389 66.3741 64.6765 66.3741 64.9242C66.3741 65.4419 65.9585 64.6629 65.4372 64.6629C64.9218 64.6629 64.5062 65.4408 64.5062 64.9242ZM66.1307 68.3525C65.7495 68.3525 65.4443 68.7373 65.4443 68.3525C65.4443 67.9737 65.7495 67.6637 66.1307 67.6637C66.2215 67.6631 66.3116 67.6805 66.3957 67.7148C66.4798 67.7491 66.5563 67.7998 66.6208 67.8638C66.6852 67.9278 66.7364 68.004 66.7713 68.0878C66.8062 68.1717 66.8242 68.2617 66.8242 68.3525C66.8242 68.7373 66.5214 68.3525 66.1307 68.3525ZM66.8361 55.6308H56.2507V50.3381H66.8361V55.6308ZM66.8361 43.9862H56.2507V38.6935H66.8361V43.9862ZM66.8361 32.3416H56.2507V27.0489H66.8361V32.3416ZM66.8361 20.6993H56.2507V15.4066H66.8361V20.6993ZM68.0176 70.851C67.5011 70.851 67.0866 71.6288 67.0866 71.1123C67.0822 70.987 67.103 70.862 67.1478 70.745C67.1927 70.6279 67.2607 70.5211 67.3477 70.4308C67.4348 70.3406 67.5391 70.2689 67.6545 70.2199C67.7699 70.1708 67.894 70.1456 68.0194 70.1456C68.1448 70.1456 68.2689 70.1708 68.3843 70.2199C68.4997 70.2689 68.604 70.3406 68.6911 70.4308C68.7781 70.5211 68.8461 70.6279 68.891 70.745C68.9358 70.862 68.9567 70.987 68.9522 71.1123C68.9522 71.6288 68.5401 70.851 68.0176 70.851ZM68.2587 66.3527C67.8763 66.3527 67.5723 66.8563 67.5723 66.4727C67.5723 66.0808 67.8763 65.7744 68.2587 65.7744C68.6351 65.7744 68.9522 66.0808 68.9522 66.4727C68.9522 66.8563 68.6363 66.3527 68.2587 66.3527ZM69.9105 68.4796C69.9105 68.2967 69.9831 68.1214 70.1124 67.9921C70.2417 67.8628 70.417 67.7902 70.5998 67.7902C70.7827 67.7902 70.958 67.8628 71.0873 67.9921C71.2166 68.1214 71.2892 68.2967 71.2892 68.4796C71.2892 68.8631 70.9852 68.3667 70.604 68.3667C70.2169 68.3667 69.9105 68.8631 69.9105 68.4796ZM71.2357 70.9508C70.8534 70.9508 70.5399 71.3426 70.5399 70.9508C70.5399 70.5731 70.8534 70.2584 71.2357 70.2584C71.6146 70.2584 71.9221 70.5731 71.9221 70.9508C71.9221 71.3426 71.6157 70.9508 71.2357 70.9508Z" fill="#68A15D"/>
</svg>
