<svg viewBox="0 0 91 75" fill="none" xmlns="http://www.w3.org/2000/svg">
<path d="M89.5259 71.7149H87.8553V24.3478H87.9536C88.7676 24.3478 89.4276 23.6878 89.4276 22.8737C89.4276 22.0596 88.7676 21.3996 87.9536 21.3996H79.1242L82.4224 19.4206C83.1205 19.0018 83.347 18.0963 82.9279 17.3981C82.5091 16.7002 81.6038 16.4736 80.9055 16.8926L73.3942 21.3996H68.1179L71.4161 19.4206C72.1143 19.0018 72.3407 18.0963 71.9216 17.3981C71.5028 16.7002 70.5975 16.4736 69.8992 16.8926L62.3877 21.3996H57.1114L60.4096 19.4206C61.1078 19.0018 61.3342 18.0963 60.9152 17.3981C60.4963 16.7002 59.5908 16.4736 58.8927 16.8926L51.3812 21.3996H46.105L49.4032 19.4206C50.1013 19.0018 50.3277 18.0963 49.9087 17.3981C49.4898 16.7002 48.5844 16.4736 47.8862 16.8926L40.3747 21.3996H34.4935C33.6794 21.3996 33.0194 22.0596 33.0194 22.8737C33.0194 23.6878 33.6794 24.3478 34.4935 24.3478H34.5918V33.9784H28.0374L26.5319 2.3629C26.4944 1.57712 25.8462 0.958984 25.0594 0.958984H15.6253C14.8385 0.958984 14.1903 1.57712 14.1528 2.3629L12.6472 33.9784H3.04644C2.23235 33.9784 1.57235 34.6384 1.57235 35.4525C1.57235 36.2666 2.23235 36.9266 3.04644 36.9266H3.14471V71.7149H1.47408C0.659996 71.7149 0 72.3749 0 73.189C0 74.0031 0.659996 74.6631 1.47408 74.6631H89.5259C90.34 74.6631 91 74.0031 91 73.189C91 72.3749 90.34 71.7149 89.5259 71.7149ZM68.987 65.4255V58.9396H75.473V65.4255H68.987ZM59.5529 65.4255V58.9396H66.0389V65.4255H59.5529ZM75.473 30.6372V37.1231H68.987V30.6372H75.473ZM84.9071 30.6372V37.1231H78.4212V30.6372H84.9071ZM75.473 46.5573H68.987V40.0713H75.473V46.5573ZM78.4212 40.0713H84.9071V46.5573H78.4212V40.0713ZM66.0389 46.5573H59.5529V40.0713H66.0389V46.5573ZM59.5529 49.5054H66.0389V55.9914H59.5529V49.5054ZM68.987 49.5054H75.473V55.9914H68.987V49.5054ZM78.4212 49.5054H84.9071V55.9914H78.4212V49.5054ZM66.0389 37.1231H59.5529V30.6372H66.0389V37.1231ZM78.4212 58.9396H84.9071V65.4255H78.4212V58.9396ZM84.9071 24.3478V27.689H58.0788C57.2647 27.689 56.6048 28.349 56.6048 29.1631V66.8996C56.6048 67.7137 57.2647 68.3737 58.0788 68.3737H84.9071V71.7149H37.54V24.3478H84.9071ZM16.7314 10.1966H23.9534L24.1126 13.5378H16.5722L16.7314 10.1966ZM23.6539 3.90715L23.8131 7.2484H16.8718L17.031 3.90715H23.6539ZM16.4319 16.486H24.2528L25.0857 33.9784H15.5989L16.4319 16.486ZM6.09287 36.9266H34.5918V71.7149H29.6782V55.7948H29.7765C30.5905 55.7948 31.2505 55.1348 31.2505 54.3208C31.2505 53.5067 30.5905 52.8467 29.7765 52.8467H10.9082C10.0941 52.8467 9.43412 53.5067 9.43412 54.3208C9.43412 55.1348 10.0941 55.7948 10.9082 55.7948H11.0065V71.7149H6.09287V36.9266ZM26.73 55.7948V59.1361H13.9546V55.7948H26.73ZM13.9546 62.0843H26.73V65.4255H13.9546V62.0843ZM13.9546 68.3737H26.73V71.7149H13.9546V68.3737Z" fill="#428A35" fill-opacity="0.8"/>
<path d="M10.9082 49.5053H17.1976C18.0117 49.5053 18.6717 48.8453 18.6717 48.0312C18.6717 47.2171 18.0117 46.5571 17.1976 46.5571H10.9082C10.0941 46.5571 9.43408 47.2171 9.43408 48.0312C9.43408 48.8453 10.0941 49.5053 10.9082 49.5053Z" fill="#428A35" fill-opacity="0.79"/>
<path d="M23.487 49.5053H29.7764C30.5905 49.5053 31.2505 48.8453 31.2505 48.0312C31.2505 47.2171 30.5905 46.5571 29.7764 46.5571H23.487C22.6729 46.5571 22.0129 47.2171 22.0129 48.0312C22.0129 48.8453 22.6729 49.5053 23.487 49.5053Z" fill="#428A35" fill-opacity="0.79"/>
<path d="M10.9082 43.216H17.1976C18.0117 43.216 18.6717 42.556 18.6717 41.7419C18.6717 40.9278 18.0117 40.2678 17.1976 40.2678H10.9082C10.0941 40.2678 9.43408 40.9278 9.43408 41.7419C9.43408 42.556 10.0941 43.216 10.9082 43.216Z" fill="#428A35" fill-opacity="0.79"/>
<path d="M23.487 43.216H29.7764C30.5905 43.216 31.2505 42.556 31.2505 41.7419C31.2505 40.9278 30.5905 40.2678 29.7764 40.2678H23.487C22.6729 40.2678 22.0129 40.9278 22.0129 41.7419C22.0129 42.556 22.6729 43.216 23.487 43.216Z" fill="#428A35" fill-opacity="0.79"/>
</svg>
