<svg viewBox="0 0 73 73" fill="none" xmlns="http://www.w3.org/2000/svg">
<path d="M70.5049 66.4413H54.4497L44.3585 45.8172V42.8533H61.7352V44.991H60.6659C60.0751 44.991 59.5965 45.4698 59.5965 46.0603C59.5965 46.6509 60.0751 47.1297 60.6659 47.1297H61.7352V49.2684H60.6659C60.0751 49.2684 59.5965 49.7472 59.5965 50.3378C59.5965 50.9283 60.0751 51.4071 60.6659 51.4071H64.9432C65.5339 51.4071 66.0125 50.9283 66.0125 50.3378C66.0125 49.7472 65.5339 49.2684 64.9432 49.2684H63.8739V47.1297H64.9432C65.5339 47.1297 66.0125 46.6509 66.0125 46.0603C66.0125 45.4698 65.5339 44.991 64.9432 44.991H63.8739C63.8741 43.8334 63.8734 41.1035 63.8734 39.9639C63.8734 38.2061 62.853 36.5719 61.2737 35.8002L44.3585 27.5365V24.9859H50.6577C51.2484 24.9859 51.7271 24.5071 51.7271 23.9165C51.7271 23.326 51.2484 22.8472 50.6577 22.8472H44.3585V12.0495L60.3349 19.8544C61.1853 20.2699 61.7348 21.1499 61.7348 22.0963V22.8472H55.651C55.0602 22.8472 54.5816 23.326 54.5816 23.9165C54.5816 24.5071 55.0602 24.9859 55.651 24.9859H61.7352V27.1245H60.6659C60.0751 27.1245 59.5965 27.6032 59.5965 28.1938C59.5965 28.7844 60.0751 29.2632 60.6659 29.2632H64.9432C65.5339 29.2632 66.0125 28.7844 66.0125 28.1938C66.0125 27.6032 65.5339 27.1245 64.9432 27.1245H63.8739V23.9165C63.8739 23.9137 63.8734 23.9111 63.8734 23.9083V22.0963C63.8734 20.3386 62.853 18.7043 61.2737 17.9327L44.1006 9.54323L40.6831 2.13886L47.5505 2.13871C47.7468 2.13871 47.9067 2.29855 47.9068 2.49502L47.9075 4.28142H46.8386C46.2479 4.28142 45.7693 4.76021 45.7693 5.35078C45.7693 5.94135 46.2479 6.42013 46.8386 6.42013H51.116C51.7067 6.42013 52.1853 5.94135 52.1853 5.35078C52.1853 4.76021 51.7067 4.28142 51.116 4.28142H50.0462L50.0455 2.49417C50.0451 1.11883 48.9257 -0.000142567 47.5504 1.36243e-08L25.4503 0.000427756C24.0746 0.000570337 22.9554 1.11997 22.9554 2.49559V4.27785H21.886C21.2955 4.27785 20.8167 4.75664 20.8167 5.34721C20.8167 5.93778 21.2955 6.41657 21.886 6.41657H26.1634C26.7539 6.41657 27.2327 5.93778 27.2327 5.34721C27.2327 4.75664 26.7539 4.27785 26.1634 4.27785H25.094V2.49559C25.094 2.29912 25.254 2.13914 25.4505 2.13914L32.3169 2.139L28.8997 9.5428L22.0156 12.9061C21.485 13.1654 21.265 13.8057 21.5243 14.3364C21.7835 14.8669 22.4237 15.0871 22.9545 14.8277L28.6405 12.0497V22.847H11.2652V22.0965C11.2652 21.15 11.8147 20.27 12.6651 19.8545L18.471 17.018C19.0017 16.7588 19.2217 16.1185 18.9625 15.5878C18.7033 15.0571 18.0629 14.8371 17.5323 15.0963L11.7262 17.9331C10.147 18.7048 9.12657 20.339 9.12657 22.0966V23.9161V23.9164V27.1243H8.05723C7.46667 27.1243 6.9879 27.6031 6.9879 28.1937C6.9879 28.7842 7.46667 29.263 8.05723 29.263H12.3346C12.9251 29.263 13.4039 28.7842 13.4039 28.1937C13.4039 27.6031 12.9251 27.1243 12.3346 27.1243H11.2652V24.9857H28.6407V27.5368L11.7262 35.8006C10.147 36.5723 9.12657 38.2066 9.12657 39.9641V44.991H8.05723C7.46667 44.991 6.9879 45.4698 6.9879 46.0603C6.9879 46.6509 7.46667 47.1297 8.05723 47.1297H9.12657V49.2684H8.05723C7.46667 49.2684 6.9879 49.7472 6.9879 50.3378C6.9879 50.9283 7.46667 51.4071 8.05723 51.4071H12.3346C12.9251 51.4071 13.4039 50.9283 13.4039 50.3378C13.4039 49.7472 12.9251 49.2684 12.3346 49.2684H11.2652V47.1297H12.3346C12.9251 47.1297 13.4039 46.6509 13.4039 46.0603C13.4039 45.4698 12.9251 44.991 12.3346 44.991H11.2652V42.8533H18.9873C19.5778 42.8533 20.0566 42.3745 20.0566 41.7839C20.0566 41.1933 19.5778 40.7145 18.9873 40.7145H11.2652V39.9641C11.2652 39.0177 11.8147 38.1377 12.6651 37.7222L28.6405 29.9172V40.7145H23.9986C23.408 40.7145 22.9293 41.1933 22.9293 41.7839C22.9293 42.3745 23.408 42.8533 23.9986 42.8533H28.6405V45.8189L18.5503 66.4413H2.49512C1.11938 66.4413 0 67.5607 0 68.9364V70.5048C0 71.8806 1.11938 73 2.49512 73H70.5049C71.8806 73 73 71.8806 73 70.5048V68.9364C73 67.5607 71.8806 66.4413 70.5049 66.4413ZM49.5969 66.4413L45.3795 61.7827C44.983 61.3447 44.3069 61.3114 43.8691 61.7077C43.4313 62.1041 43.3976 62.7804 43.7942 63.2182L46.7122 66.4414H26.2883L36.5 55.1603L40.4387 59.5114C40.6497 59.7447 40.9403 59.8632 41.2319 59.8632C41.4878 59.8632 41.7446 59.7718 41.9492 59.5866C42.3871 59.1902 42.4207 58.5141 42.0243 58.0762L37.9423 53.5668L43.0231 47.9541L52.0687 66.4413H49.5969ZM42.2198 42.8533V44.9967H30.7792V42.8533H42.2198ZM32.2919 40.7145L36.5 36.5066L40.7082 40.7147H32.2919V40.7145ZM38.0122 34.9942L42.2198 30.7866V39.2019L38.0122 34.9942ZM42.2198 24.9859V27.1351H30.7792V24.9859H42.2198ZM32.2922 22.8472L36.5 18.6395L40.7078 22.8472H32.2922ZM40.7082 29.2739L36.5 33.482L32.2918 29.2739H40.7082ZM38.0122 17.1272L42.2198 12.9197V21.335L38.0122 17.1272ZM36.5 15.615L32.2914 11.4065H40.7086L36.5 15.615ZM34.9877 17.1272L30.7792 21.3357V12.9188L34.9877 17.1272ZM34.9877 34.9942L30.7792 39.2026V30.7858L34.9877 34.9942ZM40.8794 47.1354L36.5 51.9734L32.1204 47.1354H40.8794ZM61.7348 39.9639V40.7145H44.3585V29.9168L60.3349 37.7219C61.1853 38.1374 61.7348 39.0174 61.7348 39.9639ZM38.3276 2.13886L41.6178 9.26762H31.3822L34.6723 2.139L38.3276 2.13886ZM29.9769 47.9541L35.0577 53.5668L23.4036 66.4413H20.9313L29.9769 47.9541ZM70.8613 70.5048C70.8613 70.7013 70.7015 70.8613 70.5049 70.8613H2.49512C2.29864 70.8613 2.13867 70.7013 2.13867 70.5048V68.9364C2.13867 68.74 2.29864 68.58 2.49512 68.58H70.5049C70.7015 68.58 70.8613 68.74 70.8613 68.9364V70.5048Z" fill="#428A35" fill-opacity="0.8"/>
</svg>
