<svg viewBox="0 0 104 71" fill="none" xmlns="http://www.w3.org/2000/svg">
<path d="M98.4811 61.8205H97.4119V38.026C97.4119 36.743 96.8417 35.5422 95.8475 34.7312L54.5695 1.05477C52.8457 -0.351591 50.3438 -0.351591 48.6202 1.05477L29.9404 16.2946C29.2936 16.8223 29.1971 17.7746 29.7247 18.4213C30.2526 19.0681 31.2047 19.1646 31.8516 18.637L50.5314 3.39731C51.1475 2.89446 52.0422 2.89446 52.6585 3.39731L93.9367 37.0737C94.2243 37.3081 94.3889 37.6553 94.3889 38.0262V61.8209H73.0244C73.1177 59.1854 73.8076 56.9501 75.1124 55.0836C76.1467 55.6779 77.468 56.079 78.8941 56.079C79.1725 56.079 79.4546 56.0637 79.7392 56.0318C81.7685 55.8043 83.665 54.7518 85.2238 52.9883C87.0129 50.964 88.4025 47.9776 89.3542 44.1116C89.4526 43.7121 89.3838 43.2899 89.1641 42.9424C88.9443 42.5948 88.5922 42.3517 88.1891 42.2695C87.9089 42.2122 81.276 40.8921 77.0397 43.0595C72.6294 45.3162 72.1046 50.3453 73.0208 52.8204C72.4276 53.5883 71.9201 54.4086 71.5007 55.2817C71.0811 54.4086 70.5738 53.5881 69.9805 52.8204C70.8969 50.3453 70.3721 45.3164 65.9615 43.0595C61.7253 40.8919 55.0923 42.2122 54.8122 42.2695C54.4091 42.3519 54.057 42.5948 53.8371 42.9424C53.6172 43.2901 53.5485 43.7123 53.6471 44.1116C54.5988 47.9776 55.9884 50.9642 57.7777 52.9885C59.3362 54.752 61.2327 55.8043 63.2623 56.0318C63.5471 56.0639 63.8292 56.079 64.1073 56.079C65.5333 56.079 66.8546 55.6779 67.8889 55.0836C69.1935 56.9498 69.8836 59.1854 69.9769 61.8209H33.4936C33.5869 59.1854 34.2768 56.9501 35.5816 55.0836C36.6159 55.6779 37.9372 56.079 39.3631 56.079C39.6415 56.079 39.9238 56.0637 40.2084 56.0318C42.2377 55.8043 44.1342 54.7518 45.6928 52.9883C47.4819 50.964 48.8715 47.9776 49.8234 44.1116C49.9217 43.7121 49.853 43.2899 49.6331 42.9424C49.4133 42.5948 49.0612 42.3517 48.6583 42.2695C48.3779 42.2122 41.7452 40.8919 37.5089 43.0595C33.0984 45.3162 32.5737 50.3453 33.49 52.8204C32.8968 53.5883 32.3895 54.4086 31.9699 55.2817C31.5505 54.4086 31.043 53.5883 30.4499 52.8204C31.3659 50.3453 30.8413 45.3162 26.4309 43.0595C22.1945 40.8919 15.5617 42.2122 15.2814 42.2695C14.8783 42.3519 14.5264 42.5948 14.3065 42.9424C14.0866 43.2901 14.0179 43.7123 14.1163 44.1116C15.0679 47.9776 16.4578 50.964 18.2469 52.9883C19.8056 54.7518 21.7021 55.8043 23.7313 56.0318C24.0162 56.0639 24.2982 56.079 24.5765 56.079C26.0022 56.079 27.3238 55.6779 28.3581 55.0836C29.6629 56.9498 30.3527 59.1854 30.4461 61.8209H8.80117V38.026C8.80117 37.6551 8.96603 37.3079 9.25323 37.0735L27.1466 22.4753C27.7936 21.9477 27.8901 20.9954 27.3623 20.3485C26.8342 19.7015 25.8821 19.6052 25.2354 20.1328L7.3422 34.7312C6.3482 35.5422 5.77803 36.7432 5.77803 38.026V61.8207H4.70885C2.11237 61.8205 0 63.9329 0 66.5296V68.6153C0 69.9302 1.06979 71 2.38486 71H78.5453C79.3802 71 80.0568 70.3232 80.0568 69.4884C80.0568 68.6536 79.3802 67.9769 78.5453 67.9769H3.02314V66.5296C3.02314 65.6001 3.77933 64.8437 4.70885 64.8437H98.4811C99.4106 64.8437 100.167 65.5999 100.167 66.5296V67.9769H84.5915C83.7566 67.9769 83.08 68.6536 83.08 69.4884C83.08 70.3232 83.7566 71 84.5915 71H100.805C102.12 71 103.19 69.9302 103.19 68.6153V66.5296C103.19 63.9329 101.078 61.8205 98.4811 61.8205ZM78.4167 45.7503C80.5049 44.6819 83.814 44.7519 85.98 44.9909C84.5174 49.807 82.2514 52.636 79.5161 53.0129C78.6537 53.1318 77.8822 52.9895 77.2725 52.7638C77.9261 52.2255 78.6561 51.7305 79.4633 51.2778C80.1915 50.8695 80.4506 49.9482 80.0425 49.2201C79.6342 48.4919 78.7127 48.2327 77.9848 48.641C77.1506 49.1088 76.3811 49.6181 75.6765 50.1679C75.7589 48.708 76.4089 46.7778 78.4167 45.7503ZM63.4852 53.0129C60.7504 52.6362 58.4847 49.8082 57.0221 44.9939C57.5538 44.9341 58.186 44.8794 58.8702 44.8543C61.2894 44.766 63.2651 45.0751 64.5848 45.7503C66.5928 46.7778 67.2425 48.708 67.3252 50.1681C66.6206 49.6181 65.8511 49.109 65.0169 48.641C64.2891 48.2327 63.3675 48.4919 62.9591 49.2201C62.551 49.9482 62.8102 50.8695 63.5384 51.2778C64.3456 51.7305 65.0753 52.2255 65.729 52.7638C65.1189 52.9893 64.3472 53.1316 63.4852 53.0129ZM38.8855 45.7503C40.9736 44.6819 44.2822 44.7519 46.4488 44.9909C44.986 49.807 42.72 52.636 39.9849 53.0129C39.1225 53.1316 38.351 52.9893 37.7413 52.7638C38.3949 52.2255 39.1247 51.7305 39.9321 51.2778C40.6603 50.8695 40.9194 49.9482 40.5111 49.2201C40.103 48.4919 39.1813 48.2327 38.4534 48.641C37.6192 49.1088 36.8499 49.6181 36.1453 50.1679C36.2279 48.708 36.8777 46.7778 38.8855 45.7503ZM23.954 53.0129C21.2182 52.636 18.9523 49.8064 17.4895 44.9889C19.6524 44.748 22.9567 44.6775 25.0534 45.7503C27.0612 46.7776 27.7109 48.7078 27.7936 50.1679C27.089 49.6181 26.3197 49.1088 25.4855 48.641C24.7573 48.2327 23.8361 48.4919 23.4277 49.2201C23.0194 49.9482 23.2786 50.8695 24.0068 51.2778C24.8139 51.7305 25.5435 52.2255 26.1971 52.7636C25.5877 52.9893 24.816 53.1316 23.954 53.0129Z" fill="#428A35" fill-opacity="0.8"/>
<path d="M58.5668 25.0674C58.5668 18.6486 52.889 13.0695 52.6473 12.8351C52.3591 12.5556 51.9707 12.4028 51.5703 12.4089C51.169 12.4155 50.7869 12.5814 50.5079 12.87C50.2677 13.1187 44.6233 19.031 44.6233 25.0674C44.6233 28.9116 47.7508 32.0391 51.5951 32.0391C55.4395 32.0391 58.5668 28.9116 58.5668 25.0674ZM47.6464 25.0674C47.6464 21.6641 50.1446 18.0458 51.6221 16.2037C53.0929 17.9718 55.5437 21.4597 55.5437 25.0674C55.5437 27.2446 53.7723 29.016 51.5951 29.016C49.4178 29.016 47.6464 27.2446 47.6464 25.0674Z" fill="#428A35" fill-opacity="0.8"/>
<path d="M31.9695 38.9594C34.7943 38.9594 37.0927 36.6612 37.0927 33.8362C37.0927 29.3765 33.188 25.5391 33.0219 25.3779C32.7337 25.0985 32.354 24.9454 31.9449 24.9516C31.5436 24.9583 31.1613 25.1241 30.8825 25.4127C30.7177 25.5832 26.8464 29.6391 26.8464 33.8362C26.8462 36.6612 29.1444 38.9594 31.9695 38.9594ZM31.9926 28.7995C32.9064 29.997 34.0693 31.9014 34.0693 33.8362C34.0693 34.9943 33.1273 35.9363 31.9693 35.9363C30.8112 35.9363 29.8692 34.9943 29.8692 33.8362C29.8694 32.1025 31.0089 30.1347 31.9926 28.7995Z" fill="#428A35" fill-opacity="0.8"/>
<path d="M71.5005 38.9595C74.3255 38.9595 76.6237 36.6613 76.6237 33.8362C76.6237 29.3765 72.719 25.5391 72.5527 25.3779C72.2645 25.0986 71.8778 24.9448 71.4757 24.9516C71.0744 24.9583 70.6921 25.1242 70.4133 25.4128C70.2487 25.5833 66.3774 29.6391 66.3774 33.8362C66.3772 36.6613 68.6756 38.9595 71.5005 38.9595ZM71.5212 28.8029C72.4348 30.0049 73.6005 31.9151 73.6005 33.8362C73.6005 34.9943 72.6583 35.9363 71.5005 35.9363C70.3426 35.9363 69.4004 34.9943 69.4004 33.8362C69.4004 32.104 70.5379 30.1381 71.5212 28.8029Z" fill="#428A35" fill-opacity="0.8"/>
</svg>
