<svg viewBox="0 0 75 73" fill="none" xmlns="http://www.w3.org/2000/svg">
<path d="M72.7723 33.9176H56.4432V30.4884C56.4424 29.9875 56.1936 29.5259 55.7921 29.2805L38.3012 18.5901V13.1478H41.7611V15.2164C41.7611 15.9832 42.3327 16.6048 43.0378 16.6048H53.4685C54.1736 16.6044 54.7449 15.9826 54.7447 15.2159C54.7447 15.0552 54.7189 14.8957 54.6686 14.7444L53.6217 11.5095L54.6814 8.34405C54.9211 7.62297 54.578 6.82709 53.9149 6.56642C53.7759 6.51176 53.6292 6.48382 53.4813 6.48364H48.7319V4.47052C48.7319 3.7038 48.1603 3.08216 47.4552 3.08216H38.3012V1.38836C38.3012 0.621638 37.7296 0 37.0245 0C36.3194 0 35.7478 0.621638 35.7478 1.38836V18.5901L18.2569 29.2666C17.8554 29.512 17.6066 29.9737 17.6058 30.4745V33.9038H1.27671C0.571646 33.9038 0 34.5254 0 35.2921V71.6116C0 72.3784 0.571646 73 1.27671 73H72.7723C73.4774 73 74.049 72.3784 74.049 71.6116V35.306C74.049 34.5393 73.4774 33.9176 72.7723 33.9176ZM48.7319 11.7594L48.6808 11.7039V9.3159H51.5917L51.0683 11.093C50.9638 11.4023 50.9638 11.7417 51.0683 12.051L51.6683 13.8281H44.3145V13.1478H47.4552C48.1603 13.1478 48.7319 12.5261 48.7319 11.7594ZM38.3012 5.85888H46.1785V7.92754V10.3711H38.3012V5.85888ZM17.6058 70.2233H2.55341V36.6944H17.6058V70.2233ZM35.7478 70.2233H29.0451V54.3682H35.7478V70.2233ZM45.0039 70.2233H38.3012V54.3682H45.0039V70.2233ZM53.9409 70.2233H47.5573V52.9798C47.5573 52.2131 46.9857 51.5915 46.2806 51.5915H27.7684C27.0633 51.5915 26.4917 52.2131 26.4917 52.9798V70.2233H20.1081V31.3492L37.0245 20.992L53.8898 31.2936L53.9409 35.2921V70.2233ZM71.4956 70.2233H56.4432V36.6944H71.4956V70.2233Z" fill="#428A35" fill-opacity="0.8"/>
<path d="M37.0245 25.2405C34.0679 25.2481 31.675 27.8565 31.675 31.0716C31.6821 34.2844 34.0828 36.8826 37.0372 36.8749C39.9917 36.8673 42.3809 34.2567 42.3739 31.0438C42.3668 27.8365 39.9738 25.2405 37.0245 25.2405ZM37.0245 34.0982C35.4803 34.0906 34.2342 32.723 34.2412 31.0438C34.2483 29.3755 35.4902 28.0248 37.0245 28.0172C38.5707 28.0248 39.8204 29.3901 39.8204 31.0716H39.8332C39.8262 32.7508 38.5686 34.1059 37.0245 34.0982Z" fill="#428A35" fill-opacity="0.8"/>
<path d="M8.18379 39.7488H5.63037V45.3022H8.18379V39.7488Z" fill="#428A35" fill-opacity="0.8"/>
<path d="M14.4777 39.7488H11.9243V45.3022H14.4777V39.7488Z" fill="#428A35" fill-opacity="0.8"/>
<path d="M29.0958 39.7488H23.989V42.5255H29.0958V39.7488Z" fill="#428A35" fill-opacity="0.8"/>
<path d="M39.5778 39.7488H34.4709V42.5255H39.5778V39.7488Z" fill="#428A35" fill-opacity="0.8"/>
<path d="M50.0597 39.7488H44.9529V42.5255H50.0597V39.7488Z" fill="#428A35" fill-opacity="0.8"/>
<path d="M29.0958 46.2185H23.989V48.9952H29.0958V46.2185Z" fill="#428A35" fill-opacity="0.8"/>
<path d="M39.5778 46.2185H34.4709V48.9952H39.5778V46.2185Z" fill="#428A35" fill-opacity="0.8"/>
<path d="M50.0597 46.2185H44.9529V48.9952H50.0597V46.2185Z" fill="#428A35" fill-opacity="0.8"/>
<path d="M8.18379 50.6753H5.63037V56.2287H8.18379V50.6753Z" fill="#428A35" fill-opacity="0.8"/>
<path d="M14.4777 50.6753H11.9243V56.2287H14.4777V50.6753Z" fill="#428A35" fill-opacity="0.8"/>
<path d="M8.18379 61.6155H5.63037V67.1689H8.18379V61.6155Z" fill="#428A35" fill-opacity="0.8"/>
<path d="M14.4777 61.6155H11.9243V67.1689H14.4777V61.6155Z" fill="#428A35" fill-opacity="0.8"/>
<path d="M62.1247 39.7488H59.5713V45.3022H62.1247V39.7488Z" fill="#428A35" fill-opacity="0.8"/>
<path d="M68.4189 39.7488H65.8655V45.3022H68.4189V39.7488Z" fill="#428A35" fill-opacity="0.8"/>
<path d="M62.1247 50.6753H59.5713V56.2287H62.1247V50.6753Z" fill="#428A35" fill-opacity="0.8"/>
<path d="M68.4189 50.6753H65.8655V56.2287H68.4189V50.6753Z" fill="#428A35" fill-opacity="0.8"/>
<path d="M62.1247 61.6155H59.5713V67.1689H62.1247V61.6155Z" fill="#428A35" fill-opacity="0.8"/>
<path d="M68.4189 61.6155H65.8655V67.1689H68.4189V61.6155Z" fill="#428A35" fill-opacity="0.8"/>
</svg>
