<svg width="20" height="20" viewBox="0 0 20 20" fill="none" xmlns="http://www.w3.org/2000/svg">
<path d="M18.7256 0H1.27726C0.57159 0 0 0.568974 0 1.27001V18.6385C0 19.3395 0.57159 19.9085 1.27726 19.9085H18.7242C19.4284 19.9085 20 19.3395 20 18.6385V1.27001C20.0014 0.567569 19.4298 0 18.7256 0ZM16.5902 12.1311C16.9558 12.502 17.7489 13.1243 17.605 13.7579C17.4723 14.3395 16.6001 14.1274 15.7533 14.1611C14.7865 14.2019 14.2135 14.2229 13.6321 13.7579C13.3583 13.5374 13.1974 13.2761 12.9349 12.9838C12.6964 12.7197 12.3957 12.2463 11.9865 12.2645C11.2511 12.3011 11.4812 13.321 11.2201 14.0164C7.13288 14.657 5.4915 12.1437 4.04347 9.70487C3.34204 8.52337 2.3287 5.98617 2.3287 5.98617L5.21911 5.97633C5.21911 5.97633 6.14635 7.65516 6.39193 8.08786C6.6008 8.45594 6.83085 8.74815 7.06796 9.07689C7.26695 9.34944 7.58168 9.88329 7.92605 9.83974C8.48635 9.76809 8.58796 7.60458 8.24077 6.87967C8.10246 6.58605 7.7708 6.48349 7.42785 6.38375C7.54357 5.65602 10.6697 5.5043 11.1749 6.06906C11.9088 6.8895 10.6669 9.17383 11.6717 9.83974C13.0831 9.10358 14.2883 6.02129 14.2883 6.02129L17.6727 6.04236C17.6727 6.04236 17.1435 7.70854 16.5888 8.44751C16.2656 8.88021 15.193 9.84395 15.2353 10.559C15.2692 11.1252 16.1414 11.6759 16.5902 12.1311Z" fill="white"/>
</svg>
