<svg width="20" height="14" viewBox="0 0 20 14" fill="none" xmlns="http://www.w3.org/2000/svg">
<path d="M18.9789 2.28932C18.7628 1.48974 18.1295 0.859432 17.3264 0.644128C15.8591 0.244507 9.99 0.244507 9.99 0.244507C9.99 0.244507 4.12113 0.244507 2.65388 0.628977C1.86619 0.844053 1.21742 1.48985 1.00136 2.28932C0.615234 3.74974 0.615234 6.77845 0.615234 6.77845C0.615234 6.77845 0.615234 9.82243 1.00136 11.2676C1.21765 12.0671 1.85074 12.6974 2.654 12.9127C4.13658 13.3124 9.99023 13.3124 9.99023 13.3124C9.99023 13.3124 15.8591 13.3124 17.3264 12.9279C18.1296 12.7127 18.7628 12.0824 18.9791 11.283C19.3651 9.82243 19.3651 6.79383 19.3651 6.79383C19.3651 6.79383 19.3806 3.74974 18.9789 2.28932ZM8.12141 9.57649V3.98042L13.0019 6.77845L8.12141 9.57649Z" fill="white"/>
</svg>
